<?xml version="1.0" encoding="UTF-8"?>
<svg id="Layer_1" data-name="Layer 1" xmlns="http://www.w3.org/2000/svg" viewBox="0 0 2953.56 1577.74">
  <defs>
    <style>
      .cls-1 {
        fill: #f99746;
      }

      .cls-2 {
        fill: #ed975d;
      }

      .cls-3 {
        fill: #ed985f;
      }

      .cls-4 {
        fill: #ed7d2b;
      }

      .cls-5 {
        fill: #ea8e50;
      }

      .cls-6 {
        fill: #ffb07b;
      }

      .cls-7 {
        fill: #fff;
      }

      .cls-8 {
        fill: #ffb27d;
      }

      .cls-9 {
        fill: #739af0;
      }

      .cls-10 {
        fill: #992525;
      }

      .cls-11 {
        fill: #bc3f3f;
      }

      .cls-12 {
        fill: #11294a;
      }

      .cls-13 {
        fill: #163560;
      }

      .cls-14 {
        fill: #253d78;
      }

      .cls-15 {
        fill: #233862;
      }

      .cls-16 {
        fill: #2b478b;
      }

      .cls-17 {
        fill: #2c3a64;
      }

      .cls-18 {
        fill: #2e3552;
      }

      .cls-19 {
        fill: #4f75ba;
      }
    </style>
  </defs>
  <g>
    <g>
      <path class="cls-19" d="m2605.1,1528.15h-855.51c-85.64,0-155.06-69.42-155.06-155.06v-740.68c0-78.64,15.42-154.97,45.84-226.89,29.36-69.41,71.37-131.73,124.86-185.23s115.81-95.5,185.23-124.86c61.97-26.21,47.15-42.09,114.33-45.76,10.78-.59,101.68-.08,112.56-.08,78.64,0,154.98,15.42,226.89,45.84,69.41,29.36,131.73,71.37,185.23,124.86,53.5,53.5,95.51,115.81,124.86,185.23,30.42,71.91,45.84,148.25,45.84,226.89v740.68c0,85.64-69.42,155.06-155.06,155.06Zm-828.44-864.85h801.37v-30.89c0-220.94-179.75-400.68-400.68-400.68s-400.68,179.75-400.68,400.68v30.89Z"/>
      <path class="cls-9" d="m2501.89,1528.15h-855.51c-85.64,0-155.06-69.42-155.06-155.06v-740.68c0-78.64,15.42-154.97,45.84-226.89,29.36-69.41,71.37-131.73,124.86-185.23,53.5-53.5,115.81-95.5,185.23-124.86,71.91-30.42,148.25-45.84,226.89-45.84s154.98,15.42,226.89,45.84c69.41,29.36,131.73,71.37,185.23,124.86,53.5,53.5,95.51,115.81,124.86,185.23,30.42,71.91,45.84,148.25,45.84,226.89v740.68c0,85.64-69.42,155.06-155.06,155.06Zm-828.44-864.85h801.37v-30.89c0-220.94-179.75-400.68-400.68-400.68s-400.68,179.75-400.68,400.68v30.89Z"/>
      <path class="cls-19" d="m2146.25,953.57c0-18-6.61-34.44-17.51-47.07-10-14.84-30.69-25.04-54.61-25.04s-44.61,10.2-54.61,25.04c-10.9,12.63-17.51,29.08-17.51,47.07,0,32.33,21.27,59.68,50.58,68.84v109.22c0,8.81,9.64,15.95,21.53,15.95s21.53-7.14,21.53-15.95v-109.22c29.31-9.16,50.58-36.52,50.58-68.84Z"/>
    </g>
    <g>
      <path class="cls-8" d="m1115.64,861.31c-1.37,9.26-11.94,19.98-23.22,28.02-12.14,8.65-17.01,17.53-21.31,21.97-1.59,1.82-2.57,2.82-2.57,2.82l-12.96-15.08s.21-.14.6-.57c2.9-3.16,10.25-10.95,15.15-19.92,10.74-19.67,25.75-22.58,25.75-22.58,0,0,14.35,2.13,18.56,5.34Z"/>
      <g>
        <g>
          <path class="cls-5" d="m446.13,1050.43l8.76,7.11s23.96-8.59,29.37,19.88c0,0,1.44,12.13-6.25,12.16-7.69.02-4.51-1.33-15.4-1.01-10.88.32-19.91-5.42-21.5-14.25l-5.21-7.48,10.23-16.41Z"/>
          <path class="cls-10" d="m445.13,1065.7c6.99-7.3,6.43-12.69,6.43-12.69,0,0-80.92-66.25-89.12-71.65-5.59-3.68-61.98-57.69-93.04-88.72-14.94-14.93-30.93-9.78-50.51-4.16l-16.13,4.63c-19.47,5.59-24.54,32.82-8.56,46.05,45,37.27,119.85,79.19,133.86,88,34.77,21.87,102.83,47.86,102.83,47.86,0,0,8.26-3.07,14.26-9.33Z"/>
        </g>
        <path class="cls-15" d="m537.48,1472.72s19.64,14.71,49.73,6.94c0,0,24.26-5.53,29.58,6.57,0,0-37.21,18.9-46.62,24.07-7.1,3.9-14.5,10.05-19.74,14.8-4.14,3.76-10.6,3.25-14.13-1.09-1.64-2.01-3.51-4.41-5.56-7.19-5.74-7.77-19.1-32.89-19.1-32.89l25.85-11.21Z"/>
        <path class="cls-16" d="m549,1465.25s-11.96,27.57-39.56,22.5c0,0-56.32-46.51-94.96-94.83-12.55-15.69-23.23-31.58-29.51-46.11-25.62-59.32-94.77-147.79-138.73-192.63l110-39.79s35.23,70.87,82.11,157.93c33.78,62.73,73.61,133.86,110.65,192.93Z"/>
        <path class="cls-15" d="m438.35,1272.31l-23.87,120.6c-12.55-15.69-23.23-31.58-29.51-46.11-25.62-59.32-94.77-147.79-138.73-192.63l110-39.79s35.23,70.87,82.11,157.93Z"/>
        <path class="cls-15" d="m348.44,1488.72s-1.2,22,25.47,24.94c0,0,15.24.08,15.28,14.08l-77.52.25s-2.25-5.65-2.8-17.75c-.42-9.29,9-33.58,9-33.58l30.55,12.06Z"/>
        <path class="cls-16" d="m320.16,1114.38s49,53.85,80.11,150.85c16.92,52.78-31.02,185.48-40.37,231.59,0,0-32.16,2.73-54.15-5.77,0,0-1.67-95.23,11.19-168.63,7.2-41.08-64.52-87.85-95.86-162.07-21.32-50.49,4.62-49.64,36.49-50.85l62.59,4.88Z"/>
        <path class="cls-6" d="m263.59,874.15c-27.26,15.4-83.08,1.2-83.08,1.2,0,0,22.67-25.91,12.37-67.65l21.41,10.87,22.99,11.68s1.49,7.37,2.52,20.61c.26,3.41.5,7.22.66,11.38,14,4.24,23.13,11.91,23.13,11.91Z"/>
        <path class="cls-11" d="m363.57,1111.6c0,4.79-5.52,7.09-6.69,7.32-11,2.01-41.7,13.95-69.36,16.69-23.29,2.44-44.91.12-68.67-4.65-3.15-.63-10.53-2.62-11.06-5.64-.65-3.29-91.63-185.46-20.91-263.71,1.66-1.84,15.62,1.47,28.39,4.5,11.79,2.8,22.61,1.24,32.26-2.64l11.97,6.3c14.7,8.19,42.52,37.3,45.78,60.14,1.65,11.62,8.3,20.22,10.22,30.43.71,3.78,1.44,7.47,2.18,11.07,1.45,7.06,2.94,13.77,4.48,20.16,4.16,17.27,8.55,32.15,12.86,44.99,4.59,13.64,9.09,24.99,13.11,34.48,5.21,12.31,9.62,21.51,12.37,28.55,1.94,4.96,3.06,8.85,3.06,12Z"/>
        <path class="cls-10" d="m360.51,1099.6c-128.42-60.5-172.9-176.68-172.9-176.68,0,0,104.34,38.49,130.08,48.51,1.45,7.06,2.94,13.77,4.48,20.16,4.16,17.27,8.55,32.15,12.86,44.99,4.59,13.64,9.09,24.99,13.11,34.48,5.21,12.31,9.62,21.51,12.37,28.55Z"/>
        <g>
          <g>
            <path class="cls-1" d="m523.42,1069.75h-70.9c-68.01,0-123.33-55.33-123.33-123.33v-231c0-68.01,55.33-123.33,123.33-123.33h70.9c68.01,0,123.33,55.33,123.33,123.33v231c0,68.01-55.33,123.33-123.33,123.33Zm-70.9-404.82c-27.84,0-50.48,22.65-50.48,50.48v231c0,27.84,22.65,50.48,50.48,50.48h70.9c27.84,0,50.48-22.65,50.48-50.48v-231c0-27.84-22.65-50.48-50.48-50.48h-70.9Z"/>
            <path class="cls-1" d="m1266.94,873.47h-650.15v-85.1h650.15c23.5,0,42.55,19.05,42.55,42.55h0c0,23.5-19.05,42.55-42.55,42.55Z"/>
            <path class="cls-1" d="m1185.36,856.33h68.29v166.76c0,18.85-15.3,34.15-34.15,34.15h0c-18.85,0-34.15-15.3-34.15-34.15v-166.76h0Z"/>
          </g>
          <path class="cls-6" d="m435.64,1064.54l11.1,4.07s22.22-15.71,36.06,9.84c0,0,5,11.16-2.92,13.59-7.92,2.43-5.04.14-16.18,3.85-11.13,3.71-22.1,1.04-26.31-6.92l-7.54-5.53,5.79-18.9Z"/>
          <path class="cls-11" d="m444.78,1080.23c4.1-10.71,5.98-15.55,5.98-15.55,0,0-83.85-68.35-92.4-74.21-5.82-4-63.79-47.32-92.04-81.09-14.02-16.75-36.12-24.41-57.5-19.92l-17.6,3.69c-21.26,4.46-28.16,31.36-11.67,45.5,46.44,39.81,124.76,85.98,139.36,95.59,36.25,23.84,116.44,57.25,116.44,57.25,0,0,6.22-2.84,9.44-11.25Z"/>
        </g>
        <path class="cls-5" d="m239.8,850.86c-26.81,1.51-44.25-20.63-44.25-20.63,0,0,12.12-6.72,18.73-11.66l22.99,11.68s1.49,7.37,2.52,20.61Z"/>
        <path class="cls-6" d="m251.23,823.34s-40.62,29.15-58.39,3.57c-17.77-25.58-34.97-39.04-9.79-58.73,25.19-19.69,37.06-13.47,45.06-6.38,8.01,7.1,33.22,53.29,23.11,61.54Z"/>
        <path class="cls-15" d="m232.41,738.7c-1.46-9.83-4.73-16.75-4.73-16.75,0,0-2.55,10.56-21.85,9.1-19.3-1.46-49.89,1.9-60.08,23.89-.65,1.4-1.23,2.84-1.74,4.31-1.85-4.88-2.29-12.18-2.29-12.18-3.67,9.47,0,21.31,0,21.31h0c-.06.34-.1.69-.15,1.04-4.26,3.6-7.84,14.79-7.84,14.79,1.29-3.12,4.42-5.16,7.21-6.41-.09,17.11,6.85,33.84,19.03,38.82,17.81,7.28,17.67,1.73,35.58,13.61,0,0,4.81-5.96,1.53-9.97-3.28-4.01-15.66-9.83-8.74-15.66,6.92-5.83,9.47.73,12.02-3.28,2.55-4.01-10.2-15.66,6.19-26.58,16.39-10.92,27.31-26.22,25.85-36.05Z"/>
      </g>
      <g>
        <path class="cls-11" d="m943.95,1504.97l-14.97,5.57s-65.01-90.16-73.01-169.49c-1.43-14.16-.95-27.89,2.14-40.56,0,0-.64-3.63-1.75-10.04-.51-2.99-1.15-6.6-1.87-10.73-2.11-12.11-5.02-28.68-8.35-47.55-7.65-43.42-17.56-98.92-25.26-139.72l4.03-1.29,43.64-14.08,9.02-28.64,32.49-8.55s7.26,14.2,13.75,81.27c1.2,8.8,2.28,18.5,3.1,29.02,2.53,32.11,2.71,71.95-3.09,117.49-1.49,11.66-3.37,23.69-5.71,36.06-1.71,9.07-1.97,21.42-1.25,35.61,3.27,64.85,27.08,165.63,27.08,165.63Z"/>
        <path class="cls-10" d="m926.91,1150.18l-70.56,140.27c-.51-2.99-1.15-6.6-1.87-10.73-2.11-12.11-5.02-28.68-8.35-47.55-7.65-43.42-17.56-98.92-25.26-139.72l4.03-1.29,43.64-14.08,9.02-28.64,32.49-8.55s7.26,14.2,13.75,81.27c1.2,8.8,2.28,18.5,3.1,29.02Z"/>
        <path class="cls-11" d="m895.87,1057.88l-1.63-14.01c-27.36,7.27-100.48-20.31-100.48-20.31,0,0-26.51,23.3-23.03,79.16,1.7,27.26,4.8,143.11,8.04,177.4,1.17,12.43,2.2,21.27,2.62,24.8,0,.02,0,.03,0,.03.13,1.08-.25,2.1-.8,3.04-4.77,8.1-8.72,16.53-11.96,25.16-31.81,84.77,4.9,189.16,4.9,189.16l9.53-3.84s20.89-116.18,37.86-167.5c2.88-8.71,5.64-15.55,8.18-19.63,7.38-11.91,14.23-31.37,20.45-54.52,11.75-43.76,21.21-100.7,27.5-144.64.87.04,18.82-74.29,18.82-74.29Z"/>
        <path class="cls-17" d="m1062.82,884.08c8.26,3.29,16.35,9.78,24.36,17.86,0,0-46.67,81.39-73.53,93.23-14.75,6.5-60.89-42.8-70.42-70.42-2.33-6.75,6.27-29.34,3.46-34.09-3.73-6.25-5.53-12.39-6.28-17.66-.18-.8-.35-1.6-.29-2.48-.89-8.39.84-14.11.84-14.11,1.07-2.75,4.09-3.93,8.57-3.85h1.59c24.17,14.22,55.92,84.07,61.16,85.7,13.66-17.3,50.54-54.18,50.54-54.18Z"/>
        <path class="cls-8" d="m948.15,888c-8.59,3.98-18.96,6.7-31.51,7.38-47.05,2.58-57.73-38.66-59.67-66.03,6.78-2.46,12.72-2.22,16.14-2.04,3.34.18,6.82.53,9.69.88,5.76-3.01,16.09-17.61,22.07-42.03l2.03.94,33.95,15.96s-3.61,11.05-6.27,21.62c-2.08,8.27-3.57,16.26-2.32,18.5,2.68,1.09,4.28,1.77,4.28,1.77,0,0,0,.01.01.04.34.87,7.72,19.67,11.61,43.02Z"/>
        <path class="cls-16" d="m959.92,918.86c-.35.94-.75,1.86-1.17,2.8-11.91,25.66-33.97,131.96-33.97,131.96,3.14,19.11-143.63-3.75-144.01-21.15-5.17-18.45,18.34-48.1,31.6-62.97,1.66-1.87,3.15-3.87,4.45-5.99,3.28-5.3,5.35-11.29,6.01-17.55,2.6-24.67-7.09-81.55-4.47-92.54,1.02-4.3,20.46,20.29,22.78,17.82,2.55-2.69,4.15-5.44,4.34-8.54.13-2.35.06-4.75-.18-7.16-.11-1.14-.26-2.27-.43-3.41-1.83-11.94-24.66-6.84-24.66-6.84,8.37-20.14,52.92-18.54,52.91-17.99,0,.55-.02,1.25-.04,3.29-.07,8.2,0,29.25,2.63,33.24,3.29,4.96,63.42,26.7,66.6,19.97,3.13-6.62-5.44-37.65-5.75-38.82-.01-.02-.01-.04-.01-.04,6.58,2.67,14.59,7.62,14.59,7.62,7.55,15.13,18.18,41.41,8.8,66.31Z"/>
        <path class="cls-11" d="m919.41,697.13c-.07-2.04-1.65-24.02-35.13-25.17,0,0,16.46,1.96,19.31,9.2,0,0-11.21-8.94-20.34-6.07-9.13,2.88-14.49,18.87-14.54,24.13-.05,5.26,5.02,22.22,10.81,23.66,2.19.55,4.72.4,7.02,0-1.54,2.41-3.05,5.06-4.5,8.03-13.36,27.42.42,54.22,11.73,51.26,7.25-1.9,9.31,10.48,9.31,10.48l70.46-57.05s-25.88-53.55-54.12-38.48Z"/>
        <path class="cls-3" d="m940.84,803.05s-3.61,11.04-6.27,21.62c-19.84-5.54-25.87-26.39-27.68-37.57l33.95,15.96Z"/>
        <path class="cls-8" d="m945.02,814.74s-47.47-10.99-40.18-40.44c7.3-29.46,6.08-50.71,36.7-44.95,30.62,5.77,33.7,18.46,33.66,28.89-.04,10.42-17.65,58.6-30.18,56.5Z"/>
        <path class="cls-11" d="m977.88,741.51c-5.1-10.68-11.11-10.11-14.87-8.21-22.31-20.64-44.18-3.78-44.18-3.78-8.42,20.34-26.67,28.66-26.67,28.66,0,0,7.29,7.47,28.43,7.3,6.46-.05,12.95-3.01,18.85-7.1-11.39,11.48-24.75,18.46-24.75,18.46,26.46-5.06,44.2-35.7,46.02-38.95,2.24,3.31,6.53,10.36,6.89,16.31.49,8.09-2.29,23.79,2.34,24.38,0,0,15.6-21.06,7.94-37.07Z"/>
        <path class="cls-15" d="m828.93,1530.09h-75.38s-1.81-11.49,2.13-20.2c3.77-8.36,9.68-12.17,8.27-22.29,4.79,4.93,12.6,10.46,23.5,8.99,1.33,2.16,8.62,13.75,13.08,16.95,4.93,3.54,26.89,2.28,28.41,16.55Z"/>
        <path class="cls-15" d="m990.79,1530.09h-75.38s-2.82-12.02,2.13-20.2c4.38-7.24,2.7-11.36-.54-17.35,3.41,1.4,7.83,2.67,12.7,2.39,3.76-.22,7.73-1.92,11.21-3.94,3.24,3.7,17.14,19.44,21.48,22.56,4.93,3.54,26.89,2.28,28.41,16.55Z"/>
      </g>
      <polygon class="cls-1" points="1093.33 873.47 1208.07 873.47 1201.69 828.97 1099.25 833.09 1093.33 873.47"/>
      <path class="cls-8" d="m1113.48,788.37c-5.35,5.33-5.22,22.41-16.51,30.45-12.14,8.65-17.01,17.53-21.31,21.97-1.59,1.82-2.57,2.82-2.57,2.82l-12.96-15.08s.21-.14.6-.57c2.9-3.16,10.25-10.95,15.15-19.92,10.74-19.67,25.75-22.58,25.75-22.58,0,0,7.64-.31,11.85,2.9Z"/>
      <path class="cls-14" d="m1068.06,816.69l19.12,21.4s-51.1,44.49-61.77,53.73c-7.59,6.45-14.74,11.71-20.57,14.73-.58.32-1.1.54-1.78.79-15,6.57-47.4,5.84-79.77,1.05-4.47-.65-8.89-1.4-13.21-2.09-15.96-2.79-31.15-6.44-43.66-10.62-7.5-2.43-14.14-5-19.24-7.73-1.82-.93-3.53-1.81-5.04-2.82-25.32-15.16-24.09-29.25-23.61-34.31.48-5.06,4.12-11.74,12.58-14.48,20.09-6.52,87.48,19.46,97.41,21.33,5.96,1.26,21.46,6.75,26.68,7.71,9.98,1.78,18.23,2.94,23.87,2.96,3.65.04,10.1-2.22,17.89-5.67,13.59-5.95,71.12-45.97,71.12-45.97Z"/>
      <path class="cls-8" d="m1075.57,881.23c-1.59-2.62-1.75-6.86-1.75-6.86,2.2-5.66,7.1-12.04,8.92-13.29,1.82-1.25,4.21-4.33,4.78-2.28.57,2.05-2.16,12.75-5.35,16.96-3.19,4.21-6.6,5.46-6.6,5.46Z"/>
    </g>
    <g>
      <path class="cls-4" d="m2212.27,624.5c16.08,27.99,36.31,38.8,36.31,38.8h84.16s-132.75-60.16-120.48-38.8Z"/>
      <g>
        <path class="cls-8" d="m2271.91,842.55c2.19,2.51,4.09,2.38,3,5.38,0,.01-.49,1.49-.5,1.5-2.01,5.55-5.8,9.44-13.5,15.62-.98.79-1.99,1.46-2.75,2.12-.2.18-1.56.45-1.75.62-.16.14-1.35,2.61-1.5,2.74-7.18,6.62-5.72,4.7-18.62,18.14-14.72,15.31-14.28,13.73-17.17,12.33-2.44-1.19-3.45-4.04,2.04-13.17.27-.44.53-.89.8-1.33.73-1.21,1.46-2.45,2.18-3.66,6.43-10.98,4.78-16.14,3.26-32.49-1.24-13.28-20.67-74.21-20.67-74.21l28.2-4.86s8.49,48.52,17.85,55.99c5,3.98,10.6,4.03,15.41,6.98.34.2.67.42,1,.63,2.73,1.81.52,5.13,2.72,7.65Z"/>
        <path class="cls-11" d="m2276.91,841.1c2.19,2.51,2.47,5.32,1.39,8.32,0,.01,0,.03-.02.04-2.46,5.54-8.92,11.7-16.37,17.87-.97.81-1.83,1.55-2.6,2.24-.2.18-.4.35-.59.53-.16.14-.3.28-.45.41-7.18,6.62-4.48,8.14-17.39,21.58-14.72,15.31-24.85,15.59-27.73,14.19-2.44-1.19,2.52-9.31,8-18.44,2.87-1.05,16.17-6.46,26.23-19.33,8.86-11.31,14.77-25.83,20.8-34.25.34.2.67.42,1,.63,2.73,1.81,5.52,3.68,7.72,6.2Z"/>
        <path class="cls-8" d="m2044.29,821.8c-1.74,8.7-7.39,6.26-21.25,2.88-13.86-3.39-10.65-.07-30.38-2.25s-21.52-5.32-22.12-8.25c-.54-2.6,3.58-4.36,14.04-5.57,1.31-.15,2.64-.31,3.96-.47,11.81-1.48,20.45-9.1,31.17-15.36,10.16-5.93,25.32-30.07,25.32-30.07l27.06,2.14s-14.2,21.57-19.69,30.94c-3.23,5.51-3.06,12.81-2.66,18.44.21,3.06-4.83,4.5-5.45,7.57Z"/>
        <path class="cls-11" d="m2021.51,827.35c-13.86-3.39-10.57.64-30.3-1.54s-25.71-9.54-26.31-12.47c-.54-2.6,9.21-3.52,19.67-4.73l.1.2s11.83,8.39,28.25,8.78c13.38.33,27.56-3.51,36.81-3.36.21,3.06.41,6.19-.21,9.26-1.74,8.7-14.15,7.25-28.01,3.87Z"/>
        <path class="cls-4" d="m2153.21,650.48l25.29,68.06,33.02,88.87s8.96.87,17.54-1.6c7.9-2.28,16.97-8.26,16.97-8.26,0,0-9.17-95.42-26.27-150.19-4.38-14.06-9.3-25.43-14.72-31.83-26.52-31.34-51.83,34.96-51.83,34.96Z"/>
        <path class="cls-1" d="m2178.93,542.39c16.57-5.34,63.83,1.52,111.31,10.81l9.94-16.4,102.54-8.01s33.78,75.02,15.31,122.85c-4.5,11.65-19.18,11.64-19.19,11.65,0,0-60.7,0-80.52,0-51,0-107.93-35.06-115.29-36.53-12.05-2.41-16.88,21.7-28.93,47.01-12.05,25.31-113.31,112.11-113.31,112.11,0,0-15.56.15-21.99-2.26-6.91-2.59-9.44-5.96-9.44-5.96,0,0,112.2-223.23,149.57-235.28Z"/>
        <path class="cls-15" d="m2300.78,395.59c36.52,20.11,110.59,61.79,110.98,61.52,0,0,27.23,10.26,42.68,0,25.75-17.1,39.55-63.11-7.53-102.71-23.48-19.75-40.16-24.56-42.7-56.09-1.38-17.11-24.76-73.57-63.62-68.35-3.25.44-6.52.75-9.79.64-4.54-.15-12.03.52-19.72,5.09-21.99,13.09-65.03,152.12-10.29,159.9Z"/>
        <path class="cls-8" d="m2331.39,378.47c-.16.1,17.97,6.29,30.09.92,11.4-5.04,20.04-23.8,19.87-23.81-5.19-.24-10.88-4.77-15.27-34.53l-2.21.79-37.14,13.36s2.69,11.92,4.43,23.26c1.47,9.53,2.25,18.65.22,20Z"/>
        <path class="cls-2" d="m2326.73,335.21s2.69,11.92,4.43,23.26c21.33-3.84,29.7-25.09,32.71-36.62l-37.14,13.36Z"/>
        <path class="cls-8" d="m2321.2,347.04s50.81-6.82,46.08-38.4c-4.73-31.58-1.36-53.73-34.01-50.71-32.64,3.02-37.12,16.01-38.11,26.94-.98,10.92,12.7,63.13,26.04,62.17Z"/>
        <path class="cls-15" d="m2297.01,267.56s32.53,28.03,54.65,30.29c22.12,2.26,30.5-4.84,30.5-4.84,0,0-13.04-10.83-20.89-28.3-2.31-5.15-7.2-8.69-12.83-9.17-15.8-1.36-45.75-1.99-51.44,12.02Z"/>
        <path class="cls-15" d="m2317.35,265.05s-10.88,10.52-14.31,18.33c-3.31,7.53-4.3,25.54-1.66,32.7,0,0-16.95-32.97-7.36-48.98,10.18-16.98,23.33-2.04,23.33-2.04Z"/>
        <path class="cls-11" d="m2288.6,453.32c1.54,102.86.42,81.36,11.67,91.12,2.71,2.35,10.33,3.75,20.36,4.41,31.54,2.09,86.98-3.1,89.09-8.93,7.27-20.17,2.14-26.43,8.21-57.31.63-3.28,1.42-6.84,2.34-10.71,5.06-21.21,9.99-28.42-7.97-62.49-16.28-30.86-33.2-55.91-34.72-55-42.96,25.5-46.42,4.07-46.42,4.07,0,0-43.32,44.67-42.56,94.84Z"/>
        <path class="cls-1" d="m2178.51,718.54l33.02,88.87s8.96.87,17.54-1.6c7.9-2.28,16.97-8.26,16.97-8.26,0,0-9.17-95.42-26.27-150.19l-41.26,71.19Z"/>
        <path class="cls-11" d="m2331.16,358.47s-44.2,7.49-49.39,26.53c-5.19,19.03-35.73,130.91-35.73,130.91,0,0,22.47,4.04,32.85-6.34,10.38-10.38,36.12-96.31,36.12-96.31l16.15-54.78Z"/>
        <path class="cls-10" d="m2320.63,548.86c31.54,2.09,86.98-3.1,89.09-8.93,7.27-20.17,2.14-26.43,8.21-57.31l-15.21-42.84s2.52,47.7-11.55,60.25c-14.05,12.55-57.6,24.22-64.43,34.7-3.3,5.03-5.47,10.08-6.1,14.13Z"/>
        <path class="cls-8" d="m2356.77,528.8s-31.12-6.93-36.14-4.17c-5.02,2.76-17.29,12.82-18.83,16.32-1.54,3.5,11.18-2.66,15.31-3.77,2.68-.72,9.73,1.73,13.22,2.89,14.69,4.89,23.68,2.38,23.68,2.38l2.75-13.66Z"/>
        <path class="cls-11" d="m2377.61,354.39s41.78,2.57,56.24,22.75c20.36,28.4,60.75,149.41,37.6,165.55-26.07,18.18-118.64,4.75-118.64,4.75,0,0-3.08-14.4,1.21-21.36,4.29-6.96,73.94-18.22,77.15-21.43,3.21-3.21-40.18-62.69-40.18-72.33s-13.38-77.93-13.38-77.93Z"/>
        <path class="cls-8" d="m2319.13,533.29s-6.52,8.41-8.66,9.41-3.52.75-3.52.75l4.39-7.91,7.78-2.26Z"/>
        <path class="cls-8" d="m2320.63,524.63l-18.96,9.21s.81,1.32,3.14,1.21c2.33-.11,8.22-2.26,8.22-2.26l7.59-8.16Z"/>
      </g>
      <g>
        <g>
          <polygon class="cls-13" points="2310.47 555.59 2160.53 555.59 2115.43 443.42 2265.14 443.42 2310.47 555.59"/>
          <polygon class="cls-12" points="2158.77 551.22 2356.77 551.22 2356.77 555.59 2160.53 555.59 2158.77 551.22"/>
        </g>
        <path class="cls-7" d="m2198.38,499.5c-1.13-3.94,1.15-7.14,5.09-7.14s8.06,3.2,9.19,7.14c1.13,3.94-1.15,7.14-5.09,7.14s-8.06-3.2-9.19-7.14Z"/>
      </g>
    </g>
  </g>
  <path class="cls-18" d="m2908.17,1534.62H34.8c-2.1,0-3.82-1.72-3.82-3.82h0c0-2.1,1.72-3.82,3.82-3.82h2873.38c2.1,0,3.82,1.72,3.82,3.82h0c0,2.1-1.72,3.82-3.82,3.82Z"/>
</svg>