<?xml version="1.0" encoding="UTF-8"?>
<svg id="Layer_1" data-name="Layer 1" xmlns="http://www.w3.org/2000/svg" xmlns:xlink="http://www.w3.org/1999/xlink" viewBox="0 0 136.17 169.04">
  <defs>
    <style>
      .cls-1, .cls-2, .cls-3, .cls-4, .cls-5, .cls-6, .cls-7, .cls-8, .cls-9, .cls-10, .cls-11, .cls-12, .cls-13, .cls-14, .cls-15, .cls-16, .cls-17, .cls-18, .cls-19 {
        fill: none;
      }

      .cls-2, .cls-3, .cls-5, .cls-8 {
        stroke-linecap: round;
        stroke-linejoin: round;
      }

      .cls-2, .cls-7 {
        stroke: #fad487;
      }

      .cls-3 {
        stroke: #036434;
      }

      .cls-3, .cls-4, .cls-9, .cls-10, .cls-11, .cls-12, .cls-13, .cls-14, .cls-15, .cls-16, .cls-17, .cls-18 {
        stroke-width: .75px;
      }

      .cls-20 {
        fill: url(#linear-gradient);
      }

      .cls-4 {
        stroke: url(#Degradado_sin_nombre_112);
      }

      .cls-4, .cls-6, .cls-7, .cls-9, .cls-10, .cls-11, .cls-12, .cls-13, .cls-14, .cls-15, .cls-16, .cls-17, .cls-18 {
        stroke-miterlimit: 10;
      }

      .cls-21 {
        fill: #f4cd86;
      }

      .cls-22 {
        fill: #ecb479;
      }

      .cls-23 {
        fill: #e4a125;
      }

      .cls-24 {
        fill: #e59352;
      }

      .cls-25 {
        fill: #fff;
      }

      .cls-26 {
        fill: #a05d26;
      }

      .cls-27 {
        fill: #dd855e;
      }

      .cls-28 {
        fill: #351718;
      }

      .cls-29 {
        fill: url(#Degradado_sin_nombre_107);
      }

      .cls-30 {
        fill: url(#Degradado_sin_nombre_128);
      }

      .cls-5 {
        stroke: #a05d26;
        stroke-width: 4px;
      }

      .cls-31 {
        fill: url(#Degradado_sin_nombre_66);
      }

      .cls-32 {
        fill: url(#Degradado_sin_nombre_10);
      }

      .cls-33 {
        fill: url(#Degradado_sin_nombre_21);
      }

      .cls-34 {
        fill: url(#Degradado_sin_nombre_25);
      }

      .cls-35 {
        fill: url(#Degradado_sin_nombre_11);
      }

      .cls-36 {
        fill: url(#Degradado_sin_nombre_16);
      }

      .cls-37 {
        fill: url(#Degradado_sin_nombre_72);
      }

      .cls-6 {
        stroke: #010101;
      }

      .cls-8 {
        stroke: #c56e29;
        stroke-width: .5px;
      }

      .cls-38 {
        fill: url(#Degradado_sin_nombre_10-12);
      }

      .cls-39 {
        fill: url(#Degradado_sin_nombre_10-11);
      }

      .cls-40 {
        fill: url(#Degradado_sin_nombre_10-10);
      }

      .cls-41 {
        fill: url(#Degradado_sin_nombre_128-4);
      }

      .cls-42 {
        fill: url(#Degradado_sin_nombre_128-3);
      }

      .cls-43 {
        fill: url(#Degradado_sin_nombre_128-6);
      }

      .cls-44 {
        fill: url(#Degradado_sin_nombre_128-2);
      }

      .cls-45 {
        fill: url(#Degradado_sin_nombre_128-5);
      }

      .cls-46 {
        fill: url(#Degradado_sin_nombre_107-8);
      }

      .cls-47 {
        fill: url(#Degradado_sin_nombre_107-7);
      }

      .cls-48 {
        fill: url(#Degradado_sin_nombre_107-2);
      }

      .cls-49 {
        fill: url(#Degradado_sin_nombre_107-3);
      }

      .cls-50 {
        fill: url(#Degradado_sin_nombre_107-5);
      }

      .cls-51 {
        fill: url(#Degradado_sin_nombre_107-6);
      }

      .cls-52 {
        fill: url(#Degradado_sin_nombre_107-9);
      }

      .cls-53 {
        fill: url(#Degradado_sin_nombre_107-4);
      }

      .cls-9 {
        stroke: url(#Degradado_sin_nombre_112-4);
      }

      .cls-10 {
        stroke: url(#Degradado_sin_nombre_112-6);
      }

      .cls-11 {
        stroke: url(#Degradado_sin_nombre_112-7);
      }

      .cls-12 {
        stroke: url(#Degradado_sin_nombre_112-5);
      }

      .cls-13 {
        stroke: url(#Degradado_sin_nombre_112-8);
      }

      .cls-14 {
        stroke: url(#Degradado_sin_nombre_112-2);
      }

      .cls-15 {
        stroke: url(#Degradado_sin_nombre_112-9);
      }

      .cls-16 {
        stroke: url(#Degradado_sin_nombre_112-3);
      }

      .cls-54 {
        fill: url(#Degradado_sin_nombre_8);
      }

      .cls-55 {
        fill: url(#Degradado_sin_nombre_66-2);
      }

      .cls-56 {
        fill: url(#Degradado_sin_nombre_66-3);
      }

      .cls-57 {
        fill: url(#Degradado_sin_nombre_11-2);
      }

      .cls-58 {
        fill: url(#Degradado_sin_nombre_16-3);
      }

      .cls-59 {
        fill: url(#Degradado_sin_nombre_16-2);
      }

      .cls-60 {
        fill: url(#Degradado_sin_nombre_10-6);
      }

      .cls-61 {
        fill: url(#Degradado_sin_nombre_10-8);
      }

      .cls-62 {
        fill: url(#Degradado_sin_nombre_10-7);
      }

      .cls-63 {
        fill: url(#Degradado_sin_nombre_10-9);
      }

      .cls-64 {
        fill: url(#Degradado_sin_nombre_10-4);
      }

      .cls-65 {
        fill: url(#Degradado_sin_nombre_10-5);
      }

      .cls-66 {
        fill: url(#Degradado_sin_nombre_10-2);
      }

      .cls-67 {
        fill: url(#Degradado_sin_nombre_10-3);
      }

      .cls-68 {
        fill: url(#Degradado_sin_nombre_21-2);
      }

      .cls-69 {
        fill: url(#Degradado_sin_nombre_25-7);
      }

      .cls-70 {
        fill: url(#Degradado_sin_nombre_25-6);
      }

      .cls-71 {
        fill: url(#Degradado_sin_nombre_25-4);
      }

      .cls-72 {
        fill: url(#Degradado_sin_nombre_25-5);
      }

      .cls-73 {
        fill: url(#Degradado_sin_nombre_25-2);
      }

      .cls-74 {
        fill: url(#Degradado_sin_nombre_25-3);
      }

      .cls-75 {
        fill: url(#Degradado_sin_nombre_72-4);
      }

      .cls-76 {
        fill: url(#Degradado_sin_nombre_72-2);
      }

      .cls-77 {
        fill: url(#Degradado_sin_nombre_72-3);
      }

      .cls-17 {
        stroke: url(#Degradado_sin_nombre_112-10);
      }

      .cls-18 {
        stroke: url(#Degradado_sin_nombre_112-11);
      }

      .cls-19 {
        clip-path: url(#clippath);
      }
    </style>
    <linearGradient id="Degradado_sin_nombre_11" data-name="Degradado sin nombre 11" x1="14.89" y1="33.14" x2="72.47" y2="33.14" gradientUnits="userSpaceOnUse">
      <stop offset="0" stop-color="#eda051"/>
      <stop offset=".45" stop-color="#cf8c49"/>
      <stop offset=".91" stop-color="#a15f26"/>
    </linearGradient>
    <linearGradient id="Degradado_sin_nombre_21" data-name="Degradado sin nombre 21" x1="17.74" y1="33.53" x2="69.49" y2="33.53" gradientUnits="userSpaceOnUse">
      <stop offset="0" stop-color="#d18d46"/>
      <stop offset=".45" stop-color="#b37a3f"/>
      <stop offset=".91" stop-color="#7d4a1e"/>
    </linearGradient>
    <linearGradient id="Degradado_sin_nombre_11-2" data-name="Degradado sin nombre 11" x1="16.81" y1="33.28" x2="70.66" y2="33.28" xlink:href="#Degradado_sin_nombre_11"/>
    <linearGradient id="Degradado_sin_nombre_21-2" data-name="Degradado sin nombre 21" x1="39.78" y1="35.12" x2="46.93" y2="35.12" xlink:href="#Degradado_sin_nombre_21"/>
    <linearGradient id="Degradado_sin_nombre_16" data-name="Degradado sin nombre 16" x1="31.86" y1="118.04" x2="34.98" y2="118.04" gradientUnits="userSpaceOnUse">
      <stop offset="0" stop-color="#dd7926"/>
      <stop offset=".52" stop-color="#dd6b26"/>
      <stop offset="1" stop-color="#d93f26"/>
    </linearGradient>
    <linearGradient id="Degradado_sin_nombre_107" data-name="Degradado sin nombre 107" x1="28.23" y1="99.54" x2="39.23" y2="99.54" gradientUnits="userSpaceOnUse">
      <stop offset="0" stop-color="#f89a46"/>
      <stop offset=".52" stop-color="#f58020"/>
      <stop offset="1" stop-color="#da5a26"/>
    </linearGradient>
    <linearGradient id="Degradado_sin_nombre_112" data-name="Degradado sin nombre 112" x1="33.55" y1="98.96" x2="36.17" y2="98.96" gradientUnits="userSpaceOnUse">
      <stop offset="0" stop-color="#da5a26"/>
      <stop offset=".03" stop-color="#da5a26"/>
      <stop offset="1" stop-color="#d24727"/>
    </linearGradient>
    <linearGradient id="Degradado_sin_nombre_112-2" data-name="Degradado sin nombre 112" x1="34.86" y1="107.88" x2="36.66" y2="107.88" xlink:href="#Degradado_sin_nombre_112"/>
    <linearGradient id="Degradado_sin_nombre_16-2" data-name="Degradado sin nombre 16" x1="37.84" y1="91.47" x2="98.29" y2="91.47" xlink:href="#Degradado_sin_nombre_16"/>
    <linearGradient id="Degradado_sin_nombre_128" data-name="Degradado sin nombre 128" x1="53.99" y1="151.01" x2="67.22" y2="151.01" gradientUnits="userSpaceOnUse">
      <stop offset="0" stop-color="#6cc283"/>
      <stop offset=".48" stop-color="#54ab6d"/>
      <stop offset=".99" stop-color="#216231"/>
    </linearGradient>
    <linearGradient id="Degradado_sin_nombre_107-2" data-name="Degradado sin nombre 107" x1="59.63" y1="95.54" x2="61.28" y2="126.23" xlink:href="#Degradado_sin_nombre_107"/>
    <linearGradient id="Degradado_sin_nombre_112-3" data-name="Degradado sin nombre 112" x1="57.23" y1="128.03" x2="66.4" y2="128.03" xlink:href="#Degradado_sin_nombre_112"/>
    <linearGradient id="Degradado_sin_nombre_112-4" data-name="Degradado sin nombre 112" x1="58.46" y1="122.16" x2="75.33" y2="122.16" xlink:href="#Degradado_sin_nombre_112"/>
    <linearGradient id="Degradado_sin_nombre_112-5" data-name="Degradado sin nombre 112" x1="64.65" y1="140.52" x2="72.34" y2="140.52" xlink:href="#Degradado_sin_nombre_112"/>
    <linearGradient id="Degradado_sin_nombre_112-6" data-name="Degradado sin nombre 112" x1="65.75" y1="137.62" x2="75.67" y2="137.62" xlink:href="#Degradado_sin_nombre_112"/>
    <linearGradient id="Degradado_sin_nombre_112-7" data-name="Degradado sin nombre 112" x1="59.47" y1="136.2" x2="63.02" y2="136.2" xlink:href="#Degradado_sin_nombre_112"/>
    <linearGradient id="Degradado_sin_nombre_112-8" data-name="Degradado sin nombre 112" x1="56.01" y1="134.3" x2="61.98" y2="134.3" xlink:href="#Degradado_sin_nombre_112"/>
    <linearGradient id="Degradado_sin_nombre_112-9" data-name="Degradado sin nombre 112" x1="58.98" y1="144.75" x2="63.97" y2="144.75" xlink:href="#Degradado_sin_nombre_112"/>
    <linearGradient id="Degradado_sin_nombre_128-2" data-name="Degradado sin nombre 128" x1="66.51" y1="151.61" x2="79.91" y2="151.61" xlink:href="#Degradado_sin_nombre_128"/>
    <linearGradient id="Degradado_sin_nombre_128-3" data-name="Degradado sin nombre 128" x1="37.01" y1="97.14" x2="79.7" y2="97.14" xlink:href="#Degradado_sin_nombre_128"/>
    <linearGradient id="Degradado_sin_nombre_128-4" data-name="Degradado sin nombre 128" x1="53.28" y1="115.81" x2="61.94" y2="115.81" xlink:href="#Degradado_sin_nombre_128"/>
    <linearGradient id="Degradado_sin_nombre_128-5" data-name="Degradado sin nombre 128" x1="47.49" y1="117.23" x2="56.88" y2="117.23" xlink:href="#Degradado_sin_nombre_128"/>
    <linearGradient id="Degradado_sin_nombre_25" data-name="Degradado sin nombre 25" x1="47.75" y1="25.72" x2="74.69" y2="25.72" gradientUnits="userSpaceOnUse">
      <stop offset="0" stop-color="#ffcf75"/>
      <stop offset=".51" stop-color="#fdb838"/>
      <stop offset="1" stop-color="#f4941f"/>
    </linearGradient>
    <linearGradient id="Degradado_sin_nombre_8" data-name="Degradado sin nombre 8" x1="47.23" y1="27.81" x2="68.18" y2="24.68" gradientUnits="userSpaceOnUse">
      <stop offset="0" stop-color="#f89a46"/>
      <stop offset=".41" stop-color="#f58020"/>
      <stop offset="1" stop-color="#da5a26"/>
    </linearGradient>
    <linearGradient id="Degradado_sin_nombre_66" data-name="Degradado sin nombre 66" x1="39.35" y1="47.33" x2="83.91" y2="47.33" gradientUnits="userSpaceOnUse">
      <stop offset="0" stop-color="#573a1f"/>
      <stop offset="1" stop-color="#3b2412"/>
    </linearGradient>
    <linearGradient id="Degradado_sin_nombre_10" data-name="Degradado sin nombre 10" x1="75.83" y1="69.25" x2="87.11" y2="69.25" gradientUnits="userSpaceOnUse">
      <stop offset="0" stop-color="#fdf5a4"/>
      <stop offset=".51" stop-color="#fee173"/>
      <stop offset=".91" stop-color="#fedf40"/>
    </linearGradient>
    <linearGradient id="Degradado_sin_nombre_25-2" data-name="Degradado sin nombre 25" x1="85.15" y1="65.26" x2="85.82" y2="65.26" xlink:href="#Degradado_sin_nombre_25"/>
    <linearGradient id="Degradado_sin_nombre_25-3" data-name="Degradado sin nombre 25" x1="78.72" y1="69.76" x2="84.89" y2="69.76" xlink:href="#Degradado_sin_nombre_25"/>
    <linearGradient id="Degradado_sin_nombre_25-4" data-name="Degradado sin nombre 25" x1="77.44" y1="73.91" x2="78.11" y2="73.91" xlink:href="#Degradado_sin_nombre_25"/>
    <linearGradient id="Degradado_sin_nombre_10-2" data-name="Degradado sin nombre 10" x1="97.47" y1="84.39" x2="107.93" y2="84.39" xlink:href="#Degradado_sin_nombre_10"/>
    <linearGradient id="Degradado_sin_nombre_10-3" data-name="Degradado sin nombre 10" x1="31.46" y1="69.39" x2="38.49" y2="69.39" xlink:href="#Degradado_sin_nombre_10"/>
    <linearGradient id="Degradado_sin_nombre_10-4" data-name="Degradado sin nombre 10" x1="57.57" y1="56.2" x2="60.97" y2="56.2" xlink:href="#Degradado_sin_nombre_10"/>
    <linearGradient id="Degradado_sin_nombre_107-3" data-name="Degradado sin nombre 107" x1="58.06" y1="56.2" x2="60.47" y2="56.2" xlink:href="#Degradado_sin_nombre_107"/>
    <linearGradient id="Degradado_sin_nombre_107-4" data-name="Degradado sin nombre 107" x1="58.61" y1="56.2" x2="59.93" y2="56.2" xlink:href="#Degradado_sin_nombre_107"/>
    <linearGradient id="Degradado_sin_nombre_128-6" data-name="Degradado sin nombre 128" x1="45.48" y1="46.76" x2="63.41" y2="87.16" xlink:href="#Degradado_sin_nombre_128"/>
    <linearGradient id="Degradado_sin_nombre_16-3" data-name="Degradado sin nombre 16" x1="93.37" y1="128.44" x2="97.77" y2="128.44" xlink:href="#Degradado_sin_nombre_16"/>
    <linearGradient id="Degradado_sin_nombre_107-5" data-name="Degradado sin nombre 107" x1="91.61" y1="104.29" x2="102.77" y2="104.29" xlink:href="#Degradado_sin_nombre_107"/>
    <linearGradient id="Degradado_sin_nombre_112-10" data-name="Degradado sin nombre 112" x1="93" y1="103.02" x2="95.84" y2="103.02" xlink:href="#Degradado_sin_nombre_112"/>
    <linearGradient id="Degradado_sin_nombre_112-11" data-name="Degradado sin nombre 112" x1="95.68" y1="96.44" x2="97.85" y2="96.44" xlink:href="#Degradado_sin_nombre_112"/>
    <linearGradient id="Degradado_sin_nombre_10-5" data-name="Degradado sin nombre 10" x1="50.45" y1="42.43" x2="52.6" y2="42.43" xlink:href="#Degradado_sin_nombre_10"/>
    <linearGradient id="Degradado_sin_nombre_107-6" data-name="Degradado sin nombre 107" x1="51.1" y1="42.43" x2="51.96" y2="42.43" xlink:href="#Degradado_sin_nombre_107"/>
    <linearGradient id="Degradado_sin_nombre_10-6" data-name="Degradado sin nombre 10" x1="71.57" y1="41.31" x2="73.71" y2="41.31" xlink:href="#Degradado_sin_nombre_10"/>
    <linearGradient id="Degradado_sin_nombre_107-7" data-name="Degradado sin nombre 107" x1="72.21" y1="41.31" x2="73.07" y2="41.31" xlink:href="#Degradado_sin_nombre_107"/>
    <linearGradient id="linear-gradient" x1="61.82" y1="49.32" x2="61.82" y2="28.61" gradientUnits="userSpaceOnUse">
      <stop offset="0" stop-color="#ecb479"/>
      <stop offset="1" stop-color="#e59352"/>
    </linearGradient>
    <linearGradient id="Degradado_sin_nombre_72" data-name="Degradado sin nombre 72" x1="52.73" y1="44.35" x2="62.06" y2="44.35" gradientUnits="userSpaceOnUse">
      <stop offset="0" stop-color="#6c4119"/>
      <stop offset="1" stop-color="#3b2412"/>
    </linearGradient>
    <linearGradient id="Degradado_sin_nombre_72-2" data-name="Degradado sin nombre 72" x1="62.06" y1="43.89" x2="71.91" y2="43.89" xlink:href="#Degradado_sin_nombre_72"/>
    <linearGradient id="Degradado_sin_nombre_66-2" data-name="Degradado sin nombre 66" x1="56.81" y1="35.6" x2="59.06" y2="35.6" xlink:href="#Degradado_sin_nombre_66"/>
    <linearGradient id="Degradado_sin_nombre_66-3" data-name="Degradado sin nombre 66" x1="66.98" y1="35.03" x2="69.09" y2="35.03" xlink:href="#Degradado_sin_nombre_66"/>
    <linearGradient id="Degradado_sin_nombre_72-3" data-name="Degradado sin nombre 72" x1="52.75" y1="33.33" x2="59.89" y2="33.33" xlink:href="#Degradado_sin_nombre_72"/>
    <linearGradient id="Degradado_sin_nombre_72-4" data-name="Degradado sin nombre 72" x1="63.54" y1="32.83" x2="70.59" y2="32.83" xlink:href="#Degradado_sin_nombre_72"/>
    <linearGradient id="Degradado_sin_nombre_10-7" data-name="Degradado sin nombre 10" x1="59.27" y1="13.51" x2="62.19" y2="13.51" xlink:href="#Degradado_sin_nombre_10"/>
    <linearGradient id="Degradado_sin_nombre_25-5" data-name="Degradado sin nombre 25" x1="58" y1="16.26" x2="63.78" y2="16.26" xlink:href="#Degradado_sin_nombre_25"/>
    <linearGradient id="Degradado_sin_nombre_10-8" data-name="Degradado sin nombre 10" x1="56.68" y1="18.69" x2="65.32" y2="18.69" xlink:href="#Degradado_sin_nombre_10"/>
    <linearGradient id="Degradado_sin_nombre_25-6" data-name="Degradado sin nombre 25" x1="54.53" y1="23.63" x2="68.23" y2="23.63" xlink:href="#Degradado_sin_nombre_25"/>
    <linearGradient id="Degradado_sin_nombre_10-9" data-name="Degradado sin nombre 10" x1="55.96" y1="26.33" x2="56.63" y2="26.33" xlink:href="#Degradado_sin_nombre_10"/>
    <linearGradient id="Degradado_sin_nombre_10-10" data-name="Degradado sin nombre 10" x1="56.39" y1="22.48" x2="66.09" y2="22.48" xlink:href="#Degradado_sin_nombre_10"/>
    <linearGradient id="Degradado_sin_nombre_10-11" data-name="Degradado sin nombre 10" x1="66.01" y1="25.8" x2="66.68" y2="25.8" xlink:href="#Degradado_sin_nombre_10"/>
    <linearGradient id="Degradado_sin_nombre_10-12" data-name="Degradado sin nombre 10" x1="51.81" y1="27.64" x2="71.32" y2="27.64" xlink:href="#Degradado_sin_nombre_10"/>
    <linearGradient id="Degradado_sin_nombre_107-8" data-name="Degradado sin nombre 107" x1="60.14" y1="25.63" x2="62.46" y2="25.63" xlink:href="#Degradado_sin_nombre_107"/>
    <linearGradient id="Degradado_sin_nombre_107-9" data-name="Degradado sin nombre 107" x1="60.43" y1="25.36" x2="61.95" y2="25.36" xlink:href="#Degradado_sin_nombre_107"/>
    <linearGradient id="Degradado_sin_nombre_25-7" data-name="Degradado sin nombre 25" x1="51.86" y1="57.68" x2="69.73" y2="57.68" xlink:href="#Degradado_sin_nombre_25"/>
    <clipPath id="clippath">
      <path class="cls-1" d="m56.32,48.7s-2.05,5.98-1.12,9.96c.93,3.98,5.55,5.2,9.2.94,3.65-4.27,3.85-9.77,3.85-9.77l1.47.37s.51,9.92-4.3,14.19c-4.81,4.27-12.71,2.34-13.46-3.92-.75-6.26,3.24-11.63,3.24-11.63l1.12-.14Z"/>
    </clipPath>
  </defs>
  <path class="cls-21" d="m101.25,154.25c0,1.7-15.31,3.08-34.19,3.08s-34.19-1.38-34.19-3.08,15.31-3.08,34.19-3.08,34.19,1.38,34.19,3.08Z"/>
  <g>
    <g>
      <path class="cls-35" d="m69.01,46.33c-7.07,11.29-23.08,15.39-36.51,9.82-13.72-5.69-21.15-19.96-15.92-32.66,5.69-13.83,23.71-19.99,39.41-12.77,15.3,7.04,20.7,23.36,13.02,35.61Z"/>
      <path class="cls-33" d="m66.47,45.22c-6.31,10.25-20.79,14.01-32.95,8.94-12.41-5.17-19.01-18.08-14.2-29.48,5.19-12.31,21.3-17.73,35.3-11.32,13.68,6.26,18.65,20.83,11.86,31.87Z"/>
      <path class="cls-57" d="m30.76,53.9c-.24-.13-.48-.25-.72-.38l11.4-15.73.09.05-10.78,16.06Zm9.17,3.05l2.96-18.65.1.02-2.25,18.75c-.27-.04-.54-.08-.81-.12Zm-17.32-9.38c-.17-.19-.34-.39-.5-.59l18.25-10.16.08.1-17.82,10.65Zm27.81,9.29l-6.04-18.59.11-.02,6.72,18.46c-.26.06-.53.11-.79.16Zm-32.79-17.96c-.08-.24-.15-.48-.22-.72l22.36-2.63.03.12-22.17,3.23Zm42.34,14.3l-14.26-15.49.11-.08,14.78,15.16c-.21.14-.42.27-.63.41ZM16.81,29.06c.04-.25.08-.51.13-.76l22.85,5.94-.03.1-22.96-5.29Zm50.31,17.26l-20.48-9.62.08-.14,20.84,9.08-.03.05c-.13.22-.27.43-.41.64Zm-26.74-13.21l-19.69-13.37c.16-.22.33-.44.5-.66l19.25,13.96-.06.07Zm6.64,2.27v-.07s23.63.92,23.63.92c-.02.27-.05.54-.08.8l-23.55-1.65Zm-5.53-3.12l-12.52-19.58c.26-.14.52-.27.78-.4l11.84,19.93-.11.05Zm5.26,1.8l-.05-.1,22.3-7.84c.1.25.21.51.3.76l-22.55,7.19Zm-3.79-2.17l-2.73-22.36c.3-.02.61-.04.92-.05l1.95,22.4h-.13Zm2.93,1.01l-.08-.07,16.72-15.75c.22.2.45.41.66.62l-17.3,15.2Zm-1.44-.81l7.84-20.97c.29.1.58.2.87.31l-8.58,20.71-.13-.04Z"/>
      <path class="cls-68" d="m46.61,36.57c-.81,1.54-2.91,2.14-4.7,1.37-1.79-.78-2.62-2.66-1.83-4.22.79-1.58,2.92-2.22,4.75-1.42,1.82.8,2.61,2.71,1.79,4.26Z"/>
      <path class="cls-26" d="m44.9,35.82c-.38.73-1.38,1.02-2.23.65-.85-.37-1.24-1.27-.86-2,.38-.74,1.38-1.04,2.24-.66.86.37,1.24,1.28.85,2.01Z"/>
    </g>
    <g>
      <path class="cls-36" d="m32.28,123.02s-.56-7.82-.39-9.48,2.1-.94,2.73,1.55c.63,2.49.25,8.34.25,8.34l-2.58-.42Z"/>
      <path class="cls-29" d="m35.35,73.57s-5.43,14.99-6.59,26.31c-1.15,11.31-.11,16.75,0,17.58s4.22,1.01,5.39,2.15c1.17,1.14-1.98,2.46-1.87,3.42.11.96,4.11,2.79,6.34,2.45,2.24-.34-2.6-31.18-.56-45.66l-2.72-6.24Z"/>
      <g>
        <path class="cls-4" d="m35.8,78.3s-2.65,31.83-1.65,41.3"/>
        <path class="cls-14" d="m35.35,95.75s-.61,15.35.94,24.2"/>
      </g>
    </g>
    <path class="cls-59" d="m38.04,78.15s8.55,20.1,27.04,18.51c18.48-1.59,26.56-24.07,26.56-24.07l6.65,4.33s-3.99,22.99-23.12,31.22c-17.82,7.66-33.48-6.03-37.33-18.8l.2-11.19Z"/>
    <g>
      <path class="cls-30" d="m67.07,147.51s.43,5.35-.15,5.79c-.59.44-2.31.35-3.27.35s-.92.75-2.47.83c-1.55.09-4.34-.06-5.83-1.14-1.33-.96-1.72-2.89-.96-4.52.75-1.62,2.31-.96,2.52,0,.21.96-1.34-.31-1.47.26-.13.57.04,1.75,2.01,1.71,1.97-.04,3.78-.71,4.85-1.58l4.78-1.71Z"/>
      <g>
        <path class="cls-48" d="m38.62,89.34s1.18,14.73,5.44,26.46c4.4,12.1,11.2,23.27,11.65,23.97s.18,3.17.63,3.96c.45.79,2.39,1.05,2.73,1.4.34.35.59,1.49,1.01,2.54.42,1.05,1.38.53,1.86.61.49.09-.82,1.49,0,1.58.82.09,2.5-.35,4.09-1.14,0,0-.08.9,1.85,1.15,1.93.25,3.69.16,4.19-.62s.67-2.37,1.59-2.72c.92-.35,2.33-2.37,2.17-3.42-.16-1.05-.91-2.34-.66-3.14.25-.8,2.52-1.77,2.14-2.82-.38-1.05-.37-4.12.04-5.61s4.54-17.3,3.35-27.71c-1.19-10.4-2.21-13.68-2.21-13.68l-39.88-.82Z"/>
        <g>
          <path class="cls-16" d="m66.03,148.74s-.25-1.14-.5-1.53c-.25-.39-1.64-1.32-1.8-2.24s.75-2.54.63-3.2-1.38-2.67-1.38-3.51,1.17-2.98,1.09-3.64c-.08-.66-5.41-21.41-6.46-27.31"/>
          <g>
            <path class="cls-9" d="m58.82,108.58s5.79,22.18,16.35,26.92"/>
            <path class="cls-12" d="m65.03,135.06s1.34,8.86,7.21,10.61"/>
            <path class="cls-10" d="m66.03,136.9s2.85,3.16,9.48,0"/>
          </g>
          <g>
            <path class="cls-11" d="m62.58,128.55s.74,10.28-2.81,15.1"/>
            <path class="cls-13" d="m61.61,130.05s-.77,5.1-5.39,8.25"/>
            <path class="cls-15" d="m59.07,145.14s2.35.56,4.7-.95"/>
          </g>
        </g>
      </g>
      <path class="cls-44" d="m66.51,149.46s-.1,3.84.48,4.28c.59.44,2.31.35,3.27.35s.92.75,2.47.83,4.34-.06,5.83-1.14c1.33-.96,1.72-2.89.96-4.52-.75-1.62-2.31-.96-2.52,0s1.34-.31,1.47.26c.13.57-.04,1.75-2.01,1.71-1.97-.04-3.78-.71-4.85-1.58l-5.11-.2Z"/>
    </g>
    <g>
      <g>
        <path class="cls-42" d="m37.76,86.97s-.83.61-.75,2.06c.08,1.45.84,5.7,2.52,8.2,1.68,2.5,8.64,10.13,18.07,10.08,9.43-.04,19.33-8.29,20.71-10.61,1.38-2.32,2.08-6.55.39-7.2l-40.95-2.53Z"/>
        <g>
          <path class="cls-3" d="m38.62,88.69s2.84,6.38,9.22,11.38c6.37,5,17.53,4.25,21.6,2.19"/>
          <path class="cls-3" d="m78.36,91.92s-12.16,12.76-27.76,8.68"/>
        </g>
      </g>
      <g>
        <path class="cls-41" d="m53.28,95.69s1.01,37.97,1.51,39.37c.5,1.4,6.57,1.49,7.1.61.53-.88-3.69-38.97-4.27-39.01-.59-.05-3.72-2.05-4.34-.97Z"/>
        <path class="cls-45" d="m49.43,95.37s-2.01,13.45-1.93,22.66c.08,9.21.25,20.26.96,20.61s7.84.96,8.35-.35c.5-1.32-1.59-41.91-2.01-42.04-.42-.13-5.37-.87-5.37-.87Z"/>
      </g>
    </g>
    <g>
      <g>
        <polygon class="cls-34" points="60.65 13.93 62.66 11.64 64.16 14.32 66.75 12.79 67.39 15.83 70.3 15.21 70.01 18.31 72.97 18.66 71.77 21.51 74.48 22.8 72.5 25.12 74.69 27.22 72.12 28.79 73.59 31.5 70.68 32.16 71.27 35.21 68.31 34.9 67.97 38 65.25 36.74 64.01 39.58 61.79 37.5 59.78 39.8 58.28 37.11 55.69 38.65 55.06 35.6 52.14 36.23 52.44 33.13 49.48 32.78 50.68 29.93 47.97 28.64 49.95 26.31 47.75 24.21 50.33 22.64 48.86 19.93 51.77 19.27 51.17 16.22 54.14 16.53 54.47 13.44 57.2 14.69 58.43 11.86 60.65 13.93"/>
        <ellipse class="cls-23" cx="61.22" cy="25.72" rx="10.65" ry="11.14"/>
        <ellipse class="cls-7" cx="61.22" cy="25.72" rx="9.35" ry="9.78"/>
        <path class="cls-54" d="m68.79,25.32c.21,4.37-3,8.09-7.18,8.31-4.18.22-7.73-3.14-7.95-7.51-.21-4.37,3-8.09,7.18-8.31,4.18-.22,7.73,3.14,7.95,7.51Z"/>
      </g>
      <path class="cls-31" d="m59.94,30.39s-9.22-3.13-13.25,4.6c-2.89,5.56-6.37,6.76-6.99,3.46,0,0-1.78,4.43,2.69,4.97,0,0-3.17,2.1-2.03,6.33,1.13,4.24,5.89,4,5.36,6.31-.53,2.31-2.07,8.6,4.33,8.84s5.36-2.45,8.85-2.36c3.49.08,6.82,3.4,10.23,1.13,3.41-2.27,2.08-5.21,3.54-6.24,1.46-1.03,3.64,3.13,5.98,1.4,2.35-1.73,3.78-6.2-1.59-10.98,0,0,2.1.74,4.11,0,2.01-.74,3.07-3.24,2.67-4.98,0,0-1.23,1.98-3.42,1.13-2.19-.85-2.15-7.69-4.96-11.18-2.81-3.49-5.65-3.59-15.51-2.44Z"/>
    </g>
    <g>
      <path class="cls-22" d="m57.39,46.67s.14,1.64-.92,1.99-6.65-.06-10.73,4.09c-4.08,4.15-16.21,16.66-16.27,20.64-.06,3.98,3.63,6.2,8.89,2.57,0,0-3.05,5.59-.5,11.22,2.4,5.32,6.82,9.12,15.71,10.87,8.89,1.75,22.81-1.75,24.94-7.89,2.12-6.14-.73-15.26-.73-15.26,0,0,3.8,3.22,4.98,4.56s2.29,4.56,7.83,6.43c5.54,1.87,13.63,3.17,14.75,3.35,1.12.18,1.29,1.63,2.81,2.24,1.82.73,5.25,1.8,7.32,2.25,1.26.27,5.42,1.11,5.76.64.34-.47-4.64-1.81-4.58-2.22.06-.41,6.9,1.99,7.55.85.47-.83-6.68-2.13-6.79-2.84-.11-.7,6.81,1.64,7.71.76.89-.88-7.1-2.02-7.12-2.34-.03-.47,5.95.67,6.09-.53.1-.84-9.27-1.35-8.83-2.05.75-1.2,3.41.35,4.53-.94,1.12-1.29-.73-1.23-3.63-1.52-2.91-.29-4.18-1.65-6.23-.64-1.36.67-1.93.37-2.38.18-1.93-.82-14.2-8.38-15.88-10.5-1.68-2.13-10.17-15.8-14.07-18.96-4.01-3.24-10.42-3.7-10.58-4.31-.17-.61-.5-4.12-.5-4.12l-9.09,1.46Z"/>
      <path class="cls-8" d="m77.77,74.91c-1.96-1.64-5.08-4.79-5.87-6.84"/>
      <g>
        <path class="cls-32" d="m75.83,73.13s4.79-4,8.9-10.58c0,0,1.87,1.21,2.38,3.45,0,0-2.08,5.63-8.11,9.96,0,0-2.03-.68-3.16-2.83Z"/>
        <g>
          <path class="cls-73" d="m85.49,65.61c-.09,0-.17-.04-.24-.1-.06-.07-.1-.16-.1-.25s.04-.18.1-.25c.13-.13.35-.13.48,0,.06.07.1.16.1.25s-.04.18-.1.25c-.06.06-.15.1-.24.1Z"/>
          <path class="cls-74" d="m78.8,73.1c-.12-.15-.1-.37.04-.49h0c.14-.13.35-.11.47.04h0c.12.15.1.37-.04.49h0c-.06.06-.14.08-.21.08h0c-.1,0-.19-.04-.26-.12Zm1.22-1.12c-.13-.14-.12-.36.01-.49h0c.13-.13.35-.13.48.01h0c.13.14.12.36-.01.49h0c-.07.06-.15.09-.23.09h0c-.09,0-.18-.04-.24-.11Zm1.16-1.19c-.13-.13-.14-.35-.01-.49h0c.13-.14.34-.15.47-.01h0c.13.13.14.36,0,.5h0c-.06.07-.15.11-.24.11h0c-.08,0-.17-.04-.23-.1Zm1.11-1.24c-.14-.13-.15-.35-.03-.5h0c.12-.14.34-.16.47-.03h0c.14.13.15.35.03.49h0c-.07.08-.16.12-.26.12h0c-.08,0-.15-.03-.22-.08Zm1.05-1.29c-.14-.12-.17-.34-.05-.49h0c.12-.15.33-.18.47-.05h0c.14.12.16.34.05.49h0c-.07.09-.16.13-.26.13h0c-.07,0-.15-.02-.21-.08Zm1.01-1.33c-.15-.12-.18-.34-.07-.49h0c.11-.15.32-.19.47-.07h0c.15.12.18.34.07.49h0c-.07.09-.17.14-.27.14h0c-.07,0-.14-.02-.2-.07Z"/>
          <path class="cls-71" d="m77.77,74.26c-.09,0-.17-.04-.24-.11-.06-.06-.1-.15-.1-.25s.04-.18.1-.25c.13-.13.35-.13.48,0,.06.07.1.15.1.25s-.04.18-.1.25c-.06.07-.15.11-.24.11Z"/>
        </g>
      </g>
      <path class="cls-24" d="m66.86,48.65c-.17-1.21-.38-3.44-.38-3.44l-9.09,1.46s.08.93-.33,1.53c.38,1.58,1.29,3.94,3.44,4.55,2.51.71,5.01-1.85,6.37-4.1Z"/>
      <g>
        <path class="cls-8" d="m56.81,65.26s1.17,6.37,10.18,7.13"/>
        <path class="cls-24" d="m45.59,66.38c-.3.37-1.1.16-1.79-.46-.69-.62-1-1.42-.7-1.79.3-.37,1.1-.16,1.79.46.69.62,1,1.42.7,1.79Z"/>
        <path class="cls-24" d="m68.25,70.46c.05.48-.64.96-1.54,1.06-.9.11-1.67-.2-1.73-.68-.05-.48.64-.96,1.54-1.06.9-.11,1.67.2,1.73.68Z"/>
        <g>
          <path class="cls-8" d="m48.98,52.75s-5.38,6.31-6.05,9.23c-.67,2.92.68,5.5,3.7,5.67"/>
          <path class="cls-8" d="m43.68,66.25s-3.26,4.27-5.33,9.7"/>
        </g>
      </g>
      <path class="cls-66" d="m107.93,83.25c-.16-.05-.29-.11-.41-.16-.8-.34-3.4-1.85-6.28-3.65h0c-4.94,2.25-3.6,8.35-3.6,8.35,3.71.82,7,1.35,7.68,1.45.12.02.23.05.33.1h0c.09-4.27,2.28-6.09,2.28-6.09Z"/>
    </g>
    <path class="cls-22" d="m34.13,65.49s2.05-6.44,2.55-7.08c.5-.64,3.23-1.11,3.8-.95.58.16,1.68,2.3,1.68,2.74s-.84.96-.84.96c0,0,.45.77.34,1.38-.11.61-.89.78-.89.78,0,0,.41.64.26,1.23-.15.58-.76.7-.76.7,0,0,.41.62.11,1.03-.29.41-1.38.38-1.38.38,0,0-.04,1.44-.63,1.97,0,0,.59,6.93-.63,9.47-1.22,2.54-4.82,3.38-6.33,2.54s-3.06-6.04-2.35-8.26c.71-2.22,3.99-5.28,5.08-6.9Z"/>
    <path class="cls-67" d="m38.36,68.64c-.71.57-2.01,1.27-3.65.56-1.64-.71-.69-3.55-.69-3.55,0,0,0,0,0,0-.52.73-1.42,1.72-2.32,2.78-.45,1.59-.44,3.53,1.63,4.33,2.55.99,4.45-.28,5.17-.91-.02-1.79-.14-3.21-.14-3.21Z"/>
    <path class="cls-6" d="m62.74,32.51c.03.64-.44,1.18-1.05,1.21-.61.03-1.13-.46-1.16-1.09-.03-.64.44-1.18,1.05-1.21.61-.03,1.13.46,1.16,1.09Z"/>
    <g>
      <path class="cls-2" d="m56.81,48.48s-2.1,6.68,2.46,7.72c5.13,1.17,8.58-6.49,8.58-6.49"/>
      <path class="cls-64" d="m60.97,56.2c0,.98-.76,1.78-1.7,1.78s-1.7-.8-1.7-1.78.76-1.78,1.7-1.78,1.7.8,1.7,1.78Z"/>
      <path class="cls-49" d="m60.47,56.2c0,.7-.54,1.26-1.21,1.26s-1.21-.57-1.21-1.26.54-1.26,1.21-1.26,1.21.57,1.21,1.26Z"/>
      <path class="cls-53" d="m59.93,56.2c0,.38-.3.69-.66.69s-.66-.31-.66-.69.3-.69.66-.69.66.31.66.69Z"/>
    </g>
    <path class="cls-43" d="m72.21,50.9s.57,13.57-11.74,24.44c-12.31,10.87-21.61,12.42-23.16,10.37,0,0-1.04.06,0,2.6,1.04,2.54,6.37,9.56,19.01,4.65,12.84-4.99,19.67-25.87,19.51-33.67-.16-7.8-2.81-9.42-3.62-8.39Z"/>
    <g>
      <path class="cls-3" d="m73.07,52.75s-2.22,28.03-22.62,39.69"/>
      <path class="cls-3" d="m66.5,74.91s-7.61,12.17-27.69,11.52"/>
    </g>
    <g>
      <path class="cls-58" d="m94.01,133.74s-.64-7.45-.64-9.56,3.51-.88,4.1,0c.59.88.69,10.79-3.47,9.56Z"/>
      <path class="cls-50" d="m91.64,72.59s-.06,8.02,0,26.61c.06,18.59.39,28.02.89,28.83.5.81,3.02.7,2.94,2.07-.08,1.37-2.1,3.38-1.26,4.08s7.9,2.88,8.49,1.92c.59-.96-2.77-53.76-4.12-58.36-1.35-4.59-6.16-6.34-6.94-5.16Z"/>
      <g>
        <path class="cls-17" d="m93.37,75.96s1.68,41.8,2.1,54.14"/>
        <path class="cls-18" d="m97.47,79.44s0,19.05-1.42,33.96"/>
      </g>
    </g>
    <line class="cls-5" x1="43.35" y1="35.14" x2="37.88" y2="78.09"/>
    <g>
      <g>
        <path class="cls-22" d="m52.71,37.32s-.67-3.04-2.6-1.97c-1.94,1.07-.53,8.12,2.96,7.23l-.36-5.25Z"/>
        <path class="cls-24" d="m49.3,38.56c.31,2.19,1.66,4.55,3.77,4.01l-.35-5.01c-.74-.47-2.44-1.24-3.42,1Z"/>
        <g>
          <path class="cls-65" d="m52.6,42.37c.03.62-.43,1.15-1.02,1.18-.59.03-1.1-.45-1.13-1.06s.43-1.15,1.02-1.18,1.1.45,1.13,1.06Z"/>
          <path class="cls-51" d="m51.96,42.4c.01.25-.17.46-.41.47-.24.01-.44-.18-.45-.43-.01-.25.17-.46.41-.47.24-.01.44.18.45.43Z"/>
        </g>
      </g>
      <g>
        <path class="cls-22" d="m70.97,36.35s.37-3.1,2.4-2.24c2.03.86,1.32,8.02-2.25,7.5l-.14-5.26Z"/>
        <path class="cls-24" d="m74.48,37.23c-.1,2.21-1.21,4.7-3.36,4.39l-.14-5.02c.69-.55,2.31-1.49,3.5.63Z"/>
        <g>
          <path class="cls-60" d="m71.57,41.37c.03.62.53,1.1,1.13,1.06.59-.03,1.05-.56,1.02-1.18-.03-.62-.53-1.1-1.13-1.06-.59.03-1.05.56-1.02,1.18Z"/>
          <path class="cls-47" d="m72.21,41.33c.01.25.21.44.45.43.24-.01.42-.22.41-.47-.01-.25-.21-.44-.45-.43-.24.01-.42.22-.41.47Z"/>
        </g>
      </g>
      <g>
        <path class="cls-20" d="m71.08,37.84c-.28-3.23-.3-6.13-.3-6.13,0,0-2.14-3.44-9.34-3.06-7.2.38-9,4.03-9,4.03,0,0,.27,2.88.3,6.13.03,3.25.56,6.47,2.48,7.9,1.92,1.44,4.04,1.94,4.04,1.94,0,0,1.13.77,3.18.67,2.05-.11,3.1-1,3.1-1,0,0,2.06-.72,3.83-2.35,1.77-1.63,1.99-4.89,1.71-8.12Z"/>
        <g>
          <path class="cls-8" d="m60.18,44.23s2.09,1.01,4.06-.21"/>
          <path class="cls-8" d="m60.97,44.96s1.32.64,2.57-.14"/>
        </g>
        <path class="cls-27" d="m54.13,36.37c-.52.03-1.01.15-1.44.35.02.66.04,1.36.05,2.08.01,1.09.08,2.17.24,3.19.44.14.93.21,1.44.19,1.9-.1,3.37-1.48,3.3-3.09s-1.68-2.83-3.58-2.73Z"/>
        <path class="cls-27" d="m69.47,35.56c.52-.03,1.02.05,1.47.2.04.66.09,1.36.15,2.08.09,1.09.13,2.17.07,3.2-.43.19-.9.31-1.41.34-1.9.1-3.5-1.12-3.58-2.73s1.4-2.99,3.3-3.09Z"/>
        <path class="cls-37" d="m62.06,41.3s-3.26-1.5-5.54,1c-2.27,2.49-1.55,4.52-3.79,4.9,0,0,7.06,3.58,9.33-5.89Z"/>
        <path class="cls-76" d="m62.06,41.3s3.1-1.83,5.6.41c2.5,2.24,1.97,4.33,4.25,4.47,0,0-6.68,4.3-9.85-4.88Z"/>
        <path class="cls-22" d="m70.8,32.69c-.01-.62-.02-.99-.02-.99,0,0-2.14-3.44-9.34-3.06-7.2.38-9,4.03-9,4.03,0,0,.03.35.08.95,3.62-1.47,7.32.81,7.32.81,0,0,.83,3.2.82,4.74,0,0-1.14.76-1.03,1.28.11.52,1.12.42,1.12.42,0,0,.46.94,1.34.9s1.24-1.03,1.24-1.03c0,0,1.01,0,1.07-.54.06-.53-1.15-1.17-1.15-1.17-.16-1.53.36-4.8.36-4.8,2.53-2.31,5.92-1.83,7.2-1.54Z"/>
        <g>
          <g>
            <path class="cls-25" d="m59.06,35.75s-2.18-3.44-4.63-.24c0,0,1.72,3.42,4.63.24Z"/>
            <path class="cls-55" d="m57.37,34.29c-.36.32-.58.8-.55,1.32,0,.08.02.15.03.23l.72.33-.51.21c.12.21.29.39.49.52.46-.2.97-.56,1.51-1.16,0,0-.67-1.06-1.69-1.46Z"/>
          </g>
          <path class="cls-28" d="m59.06,35.75c-1.01-.43-1.75-.81-2.33-.84-.76-.1-1.54.36-2.3.6.36-2.98,4.44-2.63,4.63.24h0Z"/>
        </g>
        <g>
          <g>
            <path class="cls-25" d="m64.5,35.46s1.84-3.65,4.58-.73c0,0-1.38,3.58-4.58.73Z"/>
            <path class="cls-56" d="m67.59,33.7c-.39.32-.63.82-.61,1.38,0,.08.02.15.03.23l.72.33-.51.21c.12.2.28.37.47.5.96-.48,1.39-1.62,1.39-1.62-.54-.57-1.04-.89-1.5-1.04Z"/>
          </g>
          <path class="cls-28" d="m64.5,35.46c-.21-1.86,2.25-3.41,3.73-2.12.46.34.74.84.86,1.39-.29-.05-.52-.13-.75-.2-1.58-.51-2.22.02-3.83.92h0Z"/>
        </g>
        <path class="cls-77" d="m59.84,34.44c.5-.07-2.67-4.95-7.09-.72,0,0,1.33,1.51,7.09.72Z"/>
        <path class="cls-75" d="m63.6,34.24c-.5-.02,2.18-5.21,6.98-1.47,0,0-1.18,1.64-6.98,1.47Z"/>
      </g>
      <g>
        <g>
          <path class="cls-62" d="m60.62,11.61c-.42.02-1.52,1.92-1.33,2.42s.78,1.39.78,1.39l.73-.04.73-.04s.5-.95.65-1.46c.14-.51-1.14-2.29-1.56-2.27Z"/>
          <path class="cls-72" d="m60.78,14.87c-1.68.09-3.1,1.42-2.72,2.78l2.85-.15,2.85-.15c.25-1.4-1.3-2.57-2.97-2.48Z"/>
          <path class="cls-61" d="m65.2,18.61c-.34-.95-1.84-2.36-4.35-2.23-2.51.13-3.86,1.7-4.11,2.68-.25.98.33,1.96.33,1.96l3.99-.21,3.99-.21s.48-1.04.14-1.98Z"/>
          <g>
            <path class="cls-70" d="m60.96,18.62c-4.69.25-6.97,6.16-6.32,10.04l6.78-.36,6.78-.36c.27-3.92-2.56-9.57-7.25-9.32Z"/>
            <g>
              <path class="cls-63" d="m56.31,26.68c-.09,0-.18-.03-.24-.09-.07-.06-.11-.15-.11-.24,0-.09.03-.18.09-.25.12-.14.34-.15.47-.02.07.06.11.15.11.24,0,.09-.03.18-.09.25-.06.07-.14.11-.23.11Z"/>
              <path class="cls-40" d="m56.62,25.04c-.18-.06-.27-.26-.21-.45h0c.06-.18.26-.28.43-.21h0c.17.06.26.26.2.45h0c-.05.14-.17.23-.3.23h0s-.09,0-.13-.02Zm8.84-.67c-.08-.18,0-.38.16-.47h0c.17-.08.37,0,.45.17h0c.08.18,0,.39-.16.47h0s-.08.03-.13.03h0c-.13,0-.26-.07-.32-.2Zm-8.24-.9c-.17-.09-.23-.3-.14-.47h0c.09-.17.29-.24.45-.14h0c.16.09.22.3.14.47h0c-.06.11-.17.18-.28.19h0c-.06,0-.12-.01-.17-.04Zm7.47-.53c-.1-.16-.07-.38.09-.49h0c.15-.11.36-.06.46.09h0c.1.16.06.38-.09.49h0c-.05.03-.11.05-.17.06h0c-.11,0-.23-.05-.29-.16Zm-6.64-.91c-.14-.13-.16-.35-.03-.49h0c.12-.15.33-.16.47-.04h0c.14.13.15.35.03.5h0c-.06.07-.15.12-.24.12h0c-.08,0-.17-.03-.24-.09Zm5.65-.32c-.13-.13-.14-.35-.01-.5h0c.12-.14.34-.15.47-.01h0c.13.13.14.35.01.49h0c-.06.07-.14.11-.23.11h0c-.09,0-.18-.03-.25-.09Zm-4.5-.85c-.09-.17-.03-.38.13-.48h0c.16-.09.37-.03.46.14h0c.09.17.03.38-.13.47h0s-.1.04-.15.04h0c-.12,0-.25-.06-.31-.18Zm3.27-.01h0c-.17-.08-.25-.28-.18-.46h0c.07-.18.27-.26.44-.19h0c.17.08.25.28.18.46h0c-.05.13-.17.21-.29.22h0c-.05,0-.1,0-.15-.03Zm-1.78-.59c0-.19.13-.36.32-.37h0c.18,0,.34.14.35.33h0c0,.19-.13.36-.32.37h0c-.18,0-.34-.14-.35-.33Z"/>
              <path class="cls-39" d="m66.36,26.14c-.09,0-.18-.03-.24-.09-.07-.06-.1-.15-.11-.24,0-.09.02-.18.09-.25.12-.14.34-.15.47-.02.07.06.1.15.11.24,0,.09-.02.18-.09.25-.06.07-.14.11-.23.11Z"/>
            </g>
          </g>
        </g>
        <g>
          <path class="cls-38" d="m71.1,29.49s-1.91-2.34-6.21-3.07c-1.2-3.41-3.77-4.44-3.77-4.44,0,0-2.45,1.29-3.32,4.81-4.21,1.18-5.88,3.71-5.88,3.71-.44,2.09.58,2.78.58,2.78.44-.94,3.79-3.93,8.97-4.21,5.18-.27,8.8,2.35,9.33,3.24,0,0,.95-.8.3-2.83Z"/>
          <g>
            <path class="cls-46" d="m62.46,25.57c.05.97-.43,1.79-1.07,1.82-.64.03-1.2-.73-1.24-1.7s.43-1.79,1.07-1.82c.64-.03,1.2.73,1.24,1.7Z"/>
            <path class="cls-52" d="m61.95,25.32c.03.64-.28,1.17-.7,1.2-.42.02-.78-.48-.82-1.12-.03-.64.28-1.17.7-1.2.42-.02.78.48.82,1.12Z"/>
            <path class="cls-25" d="m61.18,24.85c.01.22-.1.4-.24.4-.14,0-.27-.16-.28-.38-.01-.22.1-.4.24-.4.14,0,.27.16.28.38Z"/>
          </g>
        </g>
      </g>
    </g>
    <g>
      <path class="cls-69" d="m56.32,48.7s-2.05,5.98-1.12,9.96c.93,3.98,5.55,5.2,9.2.94,3.65-4.27,3.85-9.77,3.85-9.77l1.47.37s.51,9.92-4.3,14.19c-4.81,4.27-12.71,2.34-13.46-3.92-.75-6.26,3.24-11.63,3.24-11.63l1.12-.14Z"/>
      <g class="cls-19">
        <g>
          <line class="cls-2" x1="58.61" y1="61.46" x2="56.74" y2="67.66"/>
          <line class="cls-2" x1="53.07" y1="64.91" x2="57.06" y2="60.2"/>
          <line class="cls-2" x1="51.15" y1="60.2" x2="55.58" y2="57.46"/>
          <line class="cls-2" x1="51.15" y1="55.41" x2="55.58" y2="54.46"/>
          <line class="cls-2" x1="52.69" y1="52.05" x2="55.97" y2="51.46"/>
          <line class="cls-2" x1="53.65" y1="49.89" x2="56.32" y2="49.59"/>
          <line class="cls-2" x1="60.97" y1="61.17" x2="61.63" y2="67.07"/>
          <line class="cls-2" x1="63.54" y1="59.65" x2="66.62" y2="64.91"/>
          <line class="cls-2" x1="65.36" y1="56.89" x2="69.21" y2="59.94"/>
          <line class="cls-2" x1="66.62" y1="54.04" x2="70.17" y2="55.73"/>
          <line class="cls-2" x1="67.28" y1="51.76" x2="70.59" y2="52.05"/>
        </g>
      </g>
    </g>
    <g>
      <path class="cls-22" d="m42.16,60.2c0-.44-1.1-2.59-1.68-2.74-.58-.16-3.3.32-3.8.95-.5.64-2.55,7.08-2.55,7.08-.03.05-.07.1-.11.16,0,0-.99,2.31.69,3.55,1.12.83,2.75.06,3.75-.67.49-.59.52-1.86.52-1.86,0,0,1.09.04,1.38-.38.29-.41-.11-1.03-.11-1.03,0,0,.62-.12.76-.7.15-.58-.26-1.23-.26-1.23,0,0,.78-.18.89-.78.11-.61-.34-1.38-.34-1.38,0,0,.84-.53.84-.96Z"/>
      <g>
        <g>
          <path class="cls-8" d="m35.21,64.91s.63-1.1,1.05-1.23c.42-.13,4,1.58,4,1.58"/>
          <path class="cls-8" d="m35.88,61.93s.88-.82,1.17-.76c.29.06,3.7,2.16,3.7,2.16"/>
          <path class="cls-8" d="m36.3,60.2s1.7-1.35,2.19-1.37c.49-.02,2.82,2.34,2.82,2.34"/>
          <path class="cls-8" d="m37.1,66.29s.96.25,1.89.38"/>
          <path class="cls-8" d="m36.3,67.07s1.15.44,2.02-.51"/>
        </g>
        <path class="cls-8" d="m40.9,57.79c.57.65,1.26,2.07,1.26,2.42,0,.44-.84.96-.84.96,0,0,.45.77.34,1.38-.11.61-.89.78-.89.78,0,0,.41.64.26,1.23-.15.58-.76.7-.76.7,0,0,.41.62.11,1.03-.29.41-1.38.38-1.38.38,0,0-.04,1.44-.63,1.97"/>
      </g>
    </g>
    <path class="cls-8" d="m38.49,71.85c.12,3.56-.5,5.7-.77,6.26-.15.32-.34.61-.56.87"/>
  </g>
</svg>