<?xml version="1.0" encoding="UTF-8"?>
<svg id="Layer_1" data-name="Layer 1" xmlns="http://www.w3.org/2000/svg" viewBox="0 0 104.24 299.01">
  <defs>
    <style>
      .cls-1 {
        fill: #6a6377;
      }

      .cls-2 {
        fill: #edecce;
      }

      .cls-3 {
        fill: #e3cea7;
      }

      .cls-4 {
        fill: #fff;
      }

      .cls-5 {
        fill: #f68b5e;
      }

      .cls-6 {
        fill: #fbb171;
      }

      .cls-7 {
        fill: #7f6862;
      }

      .cls-8 {
        fill: #9a5853;
      }

      .cls-9 {
        fill: #979fd0;
      }

      .cls-10 {
        fill: #7d717e;
      }

      .cls-11 {
        fill: #857d8d;
      }

      .cls-12 {
        fill: #b8ac8c;
      }

      .cls-13 {
        fill: #908491;
      }

      .cls-14 {
        fill: #8d7f71;
      }

      .cls-15 {
        fill: #bd7a64;
      }

      .cls-16 {
        fill: #aa959d;
      }

      .cls-17 {
        fill: #a64c45;
      }

      .cls-18 {
        fill: #b11f24;
      }

      .cls-19 {
        fill: #cabdd3;
      }

      .cls-20 {
        fill: #cbcce7;
      }

      .cls-21 {
        fill: #c4afac;
      }

      .cls-22 {
        fill: #d0d5d2;
      }

      .cls-23 {
        fill: #dbd7ec;
      }

      .cls-24 {
        fill: #a89cb7;
      }

      .cls-25 {
        fill: #433e4c;
      }

      .cls-26 {
        fill: #404535;
      }

      .cls-27 {
        fill: #3e3d48;
      }

      .cls-28 {
        fill: #1a1e23;
      }

      .cls-29 {
        fill: #6e5d5b;
      }

      .cls-30 {
        fill: #968c6b;
      }

      .cls-31 {
        fill: #46393b;
      }

      .cls-32 {
        fill: #464764;
      }

      .cls-33 {
        fill: #89898a;
      }

      .cls-34 {
        fill: #896c78;
      }

      .cls-35 {
        fill: #555364;
      }

      .cls-36 {
        fill: #64606e;
      }

      .cls-37 {
        fill: #2b322d;
      }

      .cls-38 {
        fill: #4a4f6c;
      }

      .cls-39 {
        fill: #383d30;
      }

      .cls-40 {
        fill: #353348;
      }

      .cls-41 {
        fill: #5b1f31;
      }

      .cls-42 {
        fill: #847782;
      }

      .cls-43 {
        fill: #5f594c;
      }

      .cls-44 {
        fill: #757393;
      }

      .cls-45 {
        fill: #61769a;
      }

      .cls-46 {
        fill: #5f3443;
      }

      .cls-47 {
        fill: #792132;
      }

      .cls-48 {
        fill: #787285;
      }

      .cls-49 {
        fill: #842d3f;
      }

      .cls-50 {
        fill: #282534;
      }
    </style>
  </defs>
  <g>
    <path class="cls-44" d="m15.47,48.22l-.08,1.05c-.02.33-.14.37-.35.11-.36-.44-.38-.89-.06-1.34.09-.12.26-.14.38-.05.07.05.11.14.11.23Z"/>
    <path class="cls-11" d="m64.26,26.88c-.75-.03-1.29.09-1.6.37l-6.89-.06c-.21,0-.32.1-.31.32l.14,4.96c0,.26.14.39.41.38l4.83-.2c.21,0,.32-.12.32-.33v-.18c0-.23-.11-.33-.33-.3-1.29.15-2.41.33-3.72.42-.08,0-.14-.06-.15-.13,0-.06.04-.12.1-.14.7-.18,4.08-.3,4.34-1.16.04-.13-.03-.26-.16-.3-.04-.01-.08-.01-.12,0-1.49.32-2.97.31-4.46,0-.62-.14-.61-.22.02-.26l4.63-.31c.17-.01.25-.1.25-.27,0-.34-3.43-.09-3.92-.07-.21,0-.3-.09-.28-.3l.02-.15c.02-.18.12-.26.3-.24,1.38.2,2.76.09,4.12-.33.11-.1.36-.12.75-.08.02.25.16.44.43.57v.24l-.25.2c-.2.16-.2.32-.01.48.27.23.56.26.87.09.09-.05.21-.05.3.01.53.35.12.51-1.22.47-.15,0-.27.13-.26.28,0,.12.08.22.19.25l1.27.3c.05.01.08.07.07.12,0,.02-.01.03-.02.04-.04.04-.08.08-.12.12-.06.07-.12.08-.2.03-.43-.27-.76-.17-1,.31-.14.27-.05.42.25.43.35.01.71.02,1.09.03.11,0,.17.1.14.21-.02.09-.1.16-.18.18-.69.13-1.2.33-1.51.61-1.16-.04-6.42-.44-7.07.15-.11.1-.2.08-.27-.05l-.22-.45c-.09-.19-.25-.28-.46-.28h-2.93c-.41,0-.74.33-.74.73,0,.19.07.37.21.51.05.05.18.07.41.07-.42.17-.85.15-1.28-.06.15-.06.24-.16.28-.29,0,0-.08-.15-.24-.42-.03-.05-.1-.1-.19-.13-.26-.09-.31-.36-.1-.6.16-.19.43-.3.68-.3l4.01.1c.26,0,.39-.12.39-.38l.02-1.45c0-.13-.1-.23-.23-.23-.01,0-.03,0-.04,0-2,.31-3.99.31-5.99,0-.34-.05-.34-.11,0-.16.64-.11,1.43-.17,2.36-.18,1.2-.02,2.41.01,3.65.09.13,0,.25-.09.26-.23,0,0,0,0,0-.01v-2.58c.02-.14-.05-.22-.2-.22l-3.7-.09-21.24.2c-.23,0-.32.11-.28.33l.15.88c.04.23.17.34.41.32,6.52-.64,13.06-.95,19.61-.93.18,0,.36-.03.53-.1l.71-.26c.58.72,2.08.15,3.01.42.32.1.32.2,0,.3-.72.23-2.73-.27-3.05.25-.1.17-.05.39.12.5.07.04.15.06.23.05.96-.12,1.94-.09,2.91.09.07,0,.12.06.12.13,0,.07-.06.12-.13.12-1.95.12-3.89.13-5.83.02-.17-.01-.26.07-.26.24l-.15,2.98c0,.14.02.29.08.42.1.21.06.41-.12.59-.1.1-.27.1-.37,0-.05-.05-.08-.12-.08-.19l.08-4.73c0-.17-.08-.26-.24-.27-2.3-.19-4.54-.05-6.72.42-2.23-.21-4.59-.13-7.07.23-.3.04-.52.3-.52.61v4.48c-.25-.04-.42-.03-.52.03l-.25-1.63c-.03-.2-.15-.3-.35-.28-1.93.14-3.86.11-5.78-.07-.36-.04-.54.11-.55.45,0,.19.14.34.33.35,0,0,.01,0,.02,0l5.92-.14c.13,0,.23.12.22.25,0,.11-.08.19-.19.22-1.65.18-3.29.2-4.94.04-.2-.02-.38,0-.57.07-.44.15-.88.2-1.31.14-.17-.02-.3-.18-.28-.35,0-.04.01-.07.03-.1l.19-.39c.09-.2.04-.35-.16-.44-.51-.24-1.02-.23-1.52.03l-.43-2.98c.28.04.52.14.71.3l-.23,1.88c-.02.2.06.3.26.3l1.09.06c.17.01.31-.12.32-.28,0-.07-.02-.15-.06-.21-.12-.17-.27-.34-.43-.51s-.14-.27.11-.29l.5-.04c.18-.01.35.03.51.12.5.3,1,.26,1.49-.11.18-.13.37-.18.59-.15l1.11.18c.11.02.21-.06.23-.17,0-.01,0-.02,0-.04v-.21c0-.19-.09-.28-.28-.29-.74-.02-4.07.39-4.41-.26l4.35-.61c.16-.02.26-.11.29-.28l.17-.86c.09-.47-.1-.7-.59-.7l-6.33.07c-.2,0-.29.1-.26.3.02.13.08.23.18.32-.09,0-.18.03-.25.07-.17.09-.26.23-.27.43-.03.86.02,5.79-1.55,5.99l-.14-5.92c0-.05.04-.1.1-.1,0,0,0,0,0,0,.69.04,1-.29.92-.99-.39-3.66-.67-7.33-.84-11-.08-1.92-.45-5.61-.41-8.42,0-.07.04-.12.11-.13.07,0,.12.04.13.11.93,5.91.85,12.39,1.19,18.38.01.27.24.48.52.48,14.13-.02,28.3-.16,42.5-.41.13,0,.18.17.15.52Zm-14.08,1.91c.12-.06.18-.2.12-.33-.04-.09-.13-.15-.23-.14l-2.09.02c-.13,0-.23.1-.23.23,0,.09.05.17.13.21.77.36,1.54.36,2.3.02Zm-17.89,1.58c.14-.31.18-.61.13-.9-.04-.22-.16-.3-.37-.24l-2.16.61c-.2.05-.28.18-.24.38l.14.8c.04.25-.06.34-.3.27-.59-.16-3.96-.74-4.06.13-.02.16.09.3.25.32.01,0,.02,0,.04,0l6.3-.04c.18,0,.29-.09.31-.27.02-.2,0-.37-.05-.52-.07-.18-.06-.36.01-.53Z"/>
    <path class="cls-23" d="m51,27l-.11.44-.71.26c-.17.07-.35.1-.53.1-6.56-.02-13.09.29-19.61.93-.24.02-.37-.08-.41-.32l-.15-.88c-.04-.22.06-.33.28-.33l21.24-.2Z"/>
    <path class="cls-19" d="m50.04,34.07l-9.7-.02c-.04-.14.01-.32.16-.53,1.69-.55,3.92-.03,5.71-.16.06,0,.11-.05.11-.12s-.05-.11-.12-.11l-6-.3v-.46l5.02-.35c.07,0,.13-.07.12-.14,0-.01,0-.02,0-.04-.02-.04-4.8-.15-5.27-.18-.23-.28-.28-.42-.16-.42,1.6-.21,4.99-.1,6.26-.75.36-.18.33-.26-.07-.24l-5.59.39-.04-.66c1.68.05,3.28-.19,4.82-.7.5-.17.49-.24-.04-.2l-4.92.3.15-.59c2.18-.47,4.42-.61,6.72-.42.17.02.25.11.24.27l-.08,4.73c0,.15.12.27.26.27.07,0,.14-.03.19-.08.18-.18.22-.38.12-.59-.06-.13-.09-.28-.08-.42l.15-2.98c0-.17.1-.25.26-.24,1.94.1,3.88.1,5.83-.02.07,0,.13-.05.13-.12,0-.07-.05-.13-.12-.13-.98-.18-1.95-.21-2.91-.09-.2.02-.38-.12-.4-.32,0-.08,0-.16.05-.23.32-.52,2.33-.02,3.05-.25.32-.11.32-.21,0-.3-.93-.27-2.43.3-3.01-.42l.11-.44,3.7.09c.14,0,.21.08.21.22v2.58c-.01.14-.12.25-.26.24,0,0,0,0-.01,0-1.23-.08-2.45-.11-3.65-.09-.94.01-1.73.07-2.36.18-.34.05-.34.1,0,.16,1.99.31,3.99.31,5.99,0,.13-.02.24.06.27.19,0,.01,0,.03,0,.04l-.02,1.45c0,.26-.14.38-.39.38l-4.01-.1c-.32,0-.66.19-.77.44-.09.2,0,.38.2.45.09.03.16.08.19.13.17.27.25.41.24.42-.04.14-.13.23-.28.29Zm0-2.85v.48c.01.07.07.12.13.12,0,0,0,0,0,0h.1c2.02-.07,3.66-.28,3.66-.48h0c0-.2-1.63-.32-3.66-.26h-.03s-.1,0-.1,0c-.07,0-.12.06-.12.12Z"/>
    <path class="cls-19" d="m62.65,27.25c.05.18.06.29.03.35l-5.46.17c-.18,0-.22.08-.12.24.37.54,3.9.37,4.69.55-1.36.42-2.73.53-4.12.33-.18-.03-.28.05-.3.24l-.02.15c-.03.21.07.31.28.3.49-.02,3.92-.27,3.92.07,0,.17-.08.26-.25.27l-4.63.31c-.63.04-.64.13-.02.26,1.49.32,2.97.32,4.46,0,.13-.03.26.06.29.19,0,.04,0,.08,0,.12-.26.86-3.64.98-4.34,1.16-.07.02-.12.1-.1.17.02.06.08.1.14.1,1.32-.08,2.44-.27,3.72-.42.22-.02.33.08.33.3v.18c0,.21-.11.32-.32.33l-4.83.2c-.26.01-.4-.11-.41-.38l-.14-4.96c0-.21.1-.32.31-.32l6.89.06Z"/>
    <path class="cls-20" d="m24.26,29.62h-.8c-.2-.18-.44-.28-.71-.32l-.66-1.44c-.1-.09-.16-.19-.18-.32-.03-.2.06-.29.26-.3l6.33-.07c.48,0,.68.23.59.7l-.17.86c-.03.16-.13.25-.29.28l-4.35.61Z"/>
    <path class="cls-48" d="m62.69,27.6l1.01.35c.2.07.19.13,0,.19l-1.14.33c-.39-.05-.64-.02-.75.08-.79-.18-4.32,0-4.69-.55-.1-.15-.06-.23.12-.24l5.46-.17Z"/>
    <path class="cls-18" d="m76.03,250.23c.07-.38.07-.65-.02-.81l.04-5.05-.11-6.31c-.2-.38-.19-.75.05-1.1.1-.67.29-2.22-.66-2-.16.04-.31,0-.44-.09l-1.21-.9-66.16.68.21,3.89c.97-.74,1.77-1.7,2.41-2.89.08-.17.22-.26.4-.29,1.4-.2,2.3.23,2.71,1.27.44,1.11.87,1.85.17,2.7-.06.07-.08.18-.05.27.05.14.21.21.35.15,2.2-.82,3.16-.13,2.88,2.06l-.46,6.91c-.01.2.04.39.14.56.67,1.08.6,2.07-.2,2.97-.13.14-.18.35-.12.54.35,1.08.9,2.05,1.66,2.89.14.16.24.33.31.53.23.68.66,1.2,1.3,1.57.13.07.28.1.44.08.82-.09,1.61.01,2.37.31.18.07.28.2.31.39.19,1.48-.44,2.24-1.91,2.28-.2,0-.3.1-.32.3-.21,2.09-2.11,1.23-2.69,2.74-.06.16-.03.29.12.4l1.48,1.18s0,0,.01,0c.12.1.14.29.03.42l-1.17,1.42c-.09.11-.14.25-.14.39,0,.93-.49,1.4-1.46,1.4.23.22.34.52.32.91,0,.18-.06.34-.16.48-.25.37-.37.66-.32.89.59-.76,1.27-.53,2.03.68.7,1.15,4.42-.82,4.04,2.21-.03.25.03.5.16.72.33.5.98.63,1.47.31.68-.44,1.17-.97,1.47-1.6.1-.2.25-.29.48-.27.99.09,1.9.44,2.73,1.05.4.25.5.76.22,1.13-.28.38-.83.5-1.24.25-1.21-.62-2.03,1.61-1.91,2.31.11.62-.3,1.21-.92,1.32-.7.12-1.09.55-1.18,1.28-.03.21.05.35.24.44,1.02.45,1.88,1.12,2.55,2.01.12.16.14.37.04.54-.13.24-.43.33-.67.2-1.15-.61-2.18-.5-3.1.32-.16.14-.37.2-.57.17-.91-.15-1.62.15-2.13.91-.08.13-.23.22-.4.22-.28.02-.53-.2-.55-.48l-.1-2.09c0-.16-.09-.24-.26-.23-1.17.12-1.92.71-2.26,1.79.17.53.14,1.05-.1,1.57-.08.19-.05.35.12.48.95.72,2.09,2.28.19,2.75-.05.59.2,1.07.72,1.43.15.1.33.15.52.13,2.13-.21,3.95-.99,6.03-.95,8.31.18,16.62.15,24.93-.1,2.41-.08,5.2.61,7.95.12l.02-5.61c0-.2-.08-.34-.24-.44-2.22-1.42-6.4-3.45-6.74-6.29-.22-1.78.12-4.41,1.77-5.43.15-.09.26-.22.33-.4.8-2.15,2.49-2.99,5.07-2.54l-.22-9.14c0-.19.14-.39.31-.46.18-.06.33.05.33.23l.57,8.74c.69.52,1.02-2.81,1.15-3.23.1-.32.42-.53.76-.5l2.08.22,9.19-.25c.93-.35,1.66-.35,2.17-.02l2.99-.46-.11-5.39-.1-3.81.27-.66-.18-4.36Zm-51.35-8.37v.03s0-.03-.01-.04t.01.01Zm4.96,45.6c-1.17.05-4.24.07-4.23-1.64,0-.1.03-.2.08-.29.16-.27.52-.37.8-.2.57.34,1.46.42,2.22.61.76.19,1.38.48,1.41,1.21,0,.16-.12.3-.28.31Zm-.98-4.15c-.4.02-.76-.27-.83-.67-.12-.7.15-1.13.8-1.29.22-.05.42-.02.62.09.7.39,1.2.2,1.49-.57.05-.14.14-.26.25-.35.37-.32.92-.28,1.23.08,1.62,1.88-2.52,2.66-3.55,2.71Zm5.76-7.28l-4.65,2.48c-.44.23-.61.1-.52-.38.33-1.8,1.44-2.99,3.33-3.56.97-.29,1.62.07,1.98,1.09.05.14,0,.29-.14.37Zm23.9-17.94c0,.25-.2.46-.45.46l-2.43.04c-.25,0-.46-.2-.47-.45v-.07c0-.25.2-.46.46-.47l2.43-.03c.25,0,.47.2.47.45v.07Z"/>
    <path class="cls-18" d="m76.74,33.67l-14.32.4-11.1.07c-.42.16-.85.14-1.28-.07l-9.7-.02c-.38.03-6.93.69-7.45.06-.24-.04-.42-.03-.52.03l-8.93.16c-.18,0-.27-.08-.27-.27v-1.74s-.43-2.98-.43-2.98l-.66-1.44c-.09,0-.18.03-.25.07-.18.09-.27.23-.27.43-.03.85.02,5.79-1.55,5.99l-3.98.25c.44,12.44.68,24.84.72,37.22,0,1.37-.19,2.9-.23,4.36.37,8.2.48,16.46.96,24.68.14,2.45-.03,4.83-.52,7.13l-.14,8.66v19.71s.05,21.23.05,21.23l-.04,10.28.14,3.91.02,3.74-.12,10.43-.03,5.39.15,2.92-.61,23.06c-.25.24-.31.43-.17.59l.37,3.16c.4-.1.63-.36.67-.78.01-.25.18-.46.42-.53.32-.11.67.07.78.38l.76,2.16c.07.2.18.35.35.47.89.65,1.58,1.47,2.03,2.45.08.17.19.31.33.43.87.72,1.42,1.55,1.62,2.49l2.97.03,1.43-.07c1.02.23,2,.16,2.92-.23,1.13-.48,2.1-.38,2.46.88l14.35-.17-9.79-.85c-.08,0-.16-.03-.23-.05-.04-.01-.08-.03-.11-.05-.04-.02-.08-.05-.12-.08-.04-.03-.07-.07-.1-.1-.03-.03-.05-.06-.08-.09-.01-.02-.03-.04-.03-.06-.04-.07-.07-.14-.09-.22,0-.03-.01-.05-.01-.08h0c-.01-.07-.01-.12,0-.19,0,0,0-.01,0-.02,0-.06.01-.12.04-.18.01-.05.04-.1.07-.16.89-1.51,2.29-2.83,4.13-3.23,2.94-.65,5.05-1.27,7.21,1.41.9,1.12,1.7,1.64,2.72,2.46.15.12.23.28.25.46l.16,1.23,3.91-.06,2.99.07,5.96-.16c1.58-1.51,2.93-3.2,4.06-5.09,1.03-1.72,2.22-3.14,2.91-5.07.4-1.11.83-1.91,1.27-2.39,1.41-1.53.36-4.23.12-6.1-.02-.13-.08-.24-.19-.32l-1.03-.76c-.06-.05-.1-.1-.11-.18-.03-.15.07-.29.23-.33l.57-.11c.12-.02.16-.09.08-.2-.33-.5-.72-.94-1.19-1.32-.1-.08-.15-.05-.15.08v.51s0,.03-.01.04c-.01.02-.05.01-.06,0-.04-.04-.08-.08-.14-.13-.1-.09-.26-.09-.35,0l-.16.17c-.08.08-.16.07-.2-.03-.76-1.44-.96-3.03-.59-4.76.08-.37.03-.68-.16-.93-.1-.14-.17-.29-.2-.45-.52-2.55-2.05-3.67-4.59-3.37,1.76.23,2.84,1.05,3.25,2.43,1.36,4.64-7.86,4.89-5-.92-.3,0-.41.01-.33.07l-2.67,1.04c-.14.05-.16.02-.06-.09.33-.37.33-.67-.02-.89.22-.22.24-.45.05-.67-.13-.16-.26-.16-.4-.01-.17.18-.36.3-.57.33-.07,0-.14-.03-.15-.1-.03-.08.02-.18.1-.21.64-.25.77-.68.41-1.3-.08-.14-.22-.22-.38-.22-.78.03-1.53-.08-2.26-.34-.52-.19-.5-.29.05-.29h.25c.27,0,.33-.08.19-.25-.03-.04-.1-.07-.2-.09-.05-.02-.05-.03,0-.05l1.15-.29c.45-.11.44-.17-.01-.17h-.25s-.07-.02-.08-.05c-.03-.05-.02-.1.03-.14,1.88-1.23,3.48-1.88,5.84-1.91,1.24-.01,2.27-.38,3.45.12,1.31.56,2.51,1.28,3.62,2.15,1.34,1.06,1.92,3.1,2.99,4.62.55.77,1.11.76,1.7-.03.27-.38.35-1.22.21-2.53l-.06-3.15s-.02.05-.03.07l-.11-17.91s.08.05.12.07l.11-8.39.2-22.15v-4.44s.01-18.49.01-18.49v-29.97s-.02-18.96-.02-18.96l-.41-39.43c0-.21.1-.32.31-.34l.92-.09c.22-.02.35-.14.39-.37l.08-.48c.05-.26-.07-.38-.33-.38Zm-44.11,80.42h-1.18c-.24,0-.43-.19-.43-.43v-5.24c0-6.09.24-11.03.53-11.03h.98c.29,0,.53,4.94.53,11.03v5.24c0,.24-.2.43-.44.43Zm.29,24.2c0,.21-.16.37-.37.38h-1c-.2,0-.37-.16-.37-.37l-.08-14.62c0-.21.16-.37.37-.37h1c.2,0,.37.16.37.37l.08,14.61Zm-2.16-98.85c0-.23.11-.33.35-.31l1.57.11c.16.01.24.1.23.25l-.31,15.12v8.03c.2.32.29.63.26.91-.03.18-.16.33-.35.35-.46.07-.98-.07-1.58-.4l-.23-9.14.05-14.92Zm1.94,150.76c-.28.2-.66.14-.86-.12-1.59-2.08-.82-6.4-.61-8.89.21-1.2.33-3.21.37-6.03,0-.55.28-.76.82-.64.12.03.2.11.2.25v7.71s.33,7.2.33,7.2c0,.2-.08.4-.24.53Zm.07-25.35l-1.21-.16c-.23-.03-.35-.16-.36-.39l-.22-4.04.14-10.65c0-.18.07-.33.21-.45.4-.36.86-.43,1.4-.22.2.08.29.23.29.44l-.03,2.47.14,12.7c0,.24-.11.34-.35.31Zm25.41-59.45h.95c.2,0,.37.14.4.33l.23,1.73c.02.14-.07.27-.21.29-.68.13-1.3.04-1.87-.26-.35-.19-.59-.56-.59-.97,0-.61.48-1.12,1.1-1.13Zm10.3,68.24c-.68,1.17.23,1.81-.08,2.78-.27.87-1.28,1.08-1.79,1.53-.56.5-1.06,1.06-1.51,1.68-.11.14-.26.24-.43.29l-3.22.74c-.2.05-.37,0-.5-.14-.7-.72-1.53-1.22-2.48-1.53-.2-.06-.37-.18-.5-.33-.68-.8-.98-1.71-.91-2.75.01-.16-.03-.31-.12-.45-.52-.75-.11-4.5-.23-5.71-.02-.18-.16-.31-.34-.32-1.02-.03-1.7-.35-2.04-.98-.46-.23-.67-.65-.65-1.25.01-.19.1-.34.27-.44.63-.38,1.28-.35,1.98.08l1.53-.55c.55-2.18,3.25-.61,4.51-.34l.76.07h2.58c.67-.1,1.21-.07,1.62.12.19.08.29.23.31.43l.17,1.5c.07.96.37,1.73.87,2.32.08.09.12.2.14.32l.2,2.33c.02.21-.02.4-.13.58Zm1.43-42.62c-1.45,2.95-1.92,6.16-1.38,9.59.1.68-.34,1.31-1,1.45-1.45.31-2.98.09-4.57-.66l-.16,4.88.02,1.28-.18,11.87c0,.29-.23.52-.52.52-1.08.01-7.36.38-7.6-.55l-.21-5.43v-6.4s.15-6.61.15-6.61c-.63-1.19-2.84-.63-3.96-.44-.21.03-.31-.05-.31-.26-.1-6.89-.11-13.79-.03-20.67.03-3.19-.27-6.64-.31-9.95,0-.18.07-.29.23-.35.28-.09.59-.13.93-.11l14.05.18c1.19-.19,1.79-.11,1.81.23.77.31,1.46.77,2.09,1.39.12.12.2.26.23.42.25,1.15-.08,2.25-.01,3.21.19,2.78.45,5.55.78,8.31.17,1.45.39,2.51.66,3.18.08.18.1.35.09.54-.11,1.62-.02,2.81-.79,4.36Z"/>
    <path class="cls-20" d="m50.18,28.79c-.76.35-1.53.34-2.3-.02-.11-.05-.16-.19-.11-.31.04-.08.12-.13.21-.13l2.09-.02c.14,0,.25.11.25.24,0,.1-.06.19-.14.23Z"/>
    <path class="cls-24" d="m40.49,28.79l-.15.59c-.51-.17-.93-.12-1.24.15-.17.14-.18.29-.02.44.34.32.8.32,1.39.02l.04.66c-.7-.18-1.19-.17-1.46.05-.12.09-.15.27-.06.39.03.04.06.06.1.08.19.09.46.12.81.08-.12,0-.07.14.16.42-.38-.05-.69-.03-.93.08-.25.11-.28.26-.09.45.24.25.62.31,1.15.18v.46c-.59-.12-.98-.04-1.16.24-.14.21-.09.35.16.41.36.1.8.11,1.29.03-.14.21-.2.39-.16.53-.38.03-6.93.69-7.45.06v-4.48c0-.3.23-.56.53-.61,2.49-.36,4.84-.44,7.07-.23Z"/>
    <path class="cls-9" d="m62.98,29.29v-.24c.27.02.53-.02.75-.1.14-.05.22,0,.23.15,0,.08,0,.15,0,.23,0,.17-.09.22-.24.14-.24-.12-.49-.17-.75-.17Z"/>
    <path class="cls-11" d="m40.48,29.98c-.59.3-1.05.3-1.39-.02-.16-.15-.16-.3.02-.44.31-.26.72-.31,1.24-.15l4.92-.3c.53-.03.54.03.04.2-1.54.52-3.14.75-4.82.7Z"/>
    <path class="cls-19" d="m32.28,30.91c.06.15.07.32.05.52-.02.18-.13.27-.31.27l-6.3.04c-.16,0-.29-.13-.29-.28,0-.01,0-.02,0-.04.1-.87,3.47-.29,4.06-.13.24.07.34-.02.3-.27l-.14-.8c-.03-.2.05-.32.24-.38l2.16-.61c.21-.06.33.02.37.24.05.29,0,.59-.13.9-.08.18-.08.35-.01.53Z"/>
    <path class="cls-19" d="m23.46,29.61h.8c.33.66,3.67.25,4.41.27.18,0,.28.1.28.29v.21c0,.11-.09.2-.2.21-.01,0-.02,0-.04,0l-1.11-.18c-.22-.03-.41.02-.59.15-.5.37-.99.41-1.49.11-.16-.09-.33-.14-.51-.12l-.5.04c-.24.02-.28.11-.11.29s.31.33.43.51c.1.13.08.32-.05.43-.06.05-.13.07-.21.06l-1.09-.06c-.2,0-.28-.11-.26-.3l.23-1.88Z"/>
    <path class="cls-11" d="m39.91,31.24c-.35.04-.62.02-.81-.08-.14-.07-.2-.24-.13-.38.02-.04.05-.08.08-.1.28-.21.77-.23,1.46-.05l5.59-.39c.4-.03.42.05.07.24-1.27.66-4.66.55-6.26.75Z"/>
    <path class="cls-48" d="m50.05,31.22c0-.07.05-.12.12-.12h.1c2.03-.07,3.68.05,3.68.25,0,0,0,0,0,0h0c0,.2-1.64.41-3.66.47h-.1c-.07,0-.13-.04-.13-.11,0,0,0,0,0,0v-.48Z"/>
    <path class="cls-48" d="m40.07,31.67c.46.03,5.25.14,5.27.18.02.07,0,.14-.08.17-.01,0-.02,0-.04,0l-5.02.35c-.53.13-.91.07-1.15-.18-.19-.19-.16-.34.09-.45.24-.11.55-.13.93-.08Z"/>
    <path class="cls-20" d="m32.37,34.14l-8.93.16c-.18,0-.27-.09-.27-.27v-1.74c.51-.26,1.02-.27,1.53-.03.2.09.25.24.16.44l-.19.39c-.08.16-.01.35.15.43.03.02.07.03.1.03.43.06.87,0,1.31-.14.18-.06.37-.09.57-.07,1.65.15,3.29.14,4.94-.04.13-.03.21-.15.18-.28-.02-.1-.11-.18-.22-.19l-5.92.14c-.19,0-.35-.15-.35-.33,0,0,0-.01,0-.02,0-.34.19-.49.55-.45,1.92.18,3.85.21,5.78.07.2-.02.32.08.35.28l.25,1.63Z"/>
    <path class="cls-19" d="m62.39,33.46c-.11.29-.1.49.03.61l-11.1.06c-.22,0-.36-.02-.41-.07-.28-.29-.27-.75.02-1.03.14-.13.32-.21.52-.21h2.93c.21,0,.36.09.46.28l.22.45c.07.14.16.15.27.05.65-.59,5.91-.19,7.07-.15Z"/>
    <path class="cls-48" d="m40.2,32.83l6,.3c.06,0,.11.05.12.11s-.05.11-.11.12c-1.79.13-4.02-.39-5.71.16-.5.08-.93.07-1.29-.03-.24-.06-.3-.2-.16-.41.18-.28.57-.36,1.16-.24Z"/>
    <path class="cls-13" d="m32.6,54.61c-.53-.4-1.16-.48-1.9-.25l.05-14.92c0-.23.11-.33.34-.32l1.58.11c.16.01.24.1.24.25l-.31,15.12Z"/>
    <path class="cls-4" d="m66.91,41.25c.32,1.91-1.05,1.82-2.42,1.68-.68-2.76,2.12-3.55,2.42-1.68Z"/>
    <path class="cls-15" d="m66.91,41.25c.24.03.44.12.6.26.14.12.19.28.15.46-.39,1.63,1.61,2.76.14,4.45-.12.14-.17.29-.17.47.02.82-.31,1.19-.99,1.1-.5-.45-1.12-.56-1.88-.33-.21.07-.3.21-.26.43l.21,1.13c.03.17.15.31.31.38.54.24.92.31,1.13.23,1.12,2,1.53,3.74,1.22,5.24-.81-.34-1.54-.4-2.19-.19-.21.07-.32.21-.3.44l.08,1.66c.01.23.11.39.31.5.67.36,1.46.33,2.36-.1-.91,1.33-1.99,1.52-3.24.57-.14-.1-.29-.14-.47-.11-.86.18-1.56-.01-2.1-.58.48.12.88.06,1.2-.17.15-.11.23-.27.24-.46l.04-.89c.03-.67-.29-.99-.96-.97-.89.03-1.35.56-1.37,1.6-.3-.32-.23-.79.23-1.41.11-.15.1-.3-.04-.43l-.56-.53c-.13-.12-.34-.12-.47,0-.87.83-1.65.77-2.36-.19.9.29,1.58.09,2.04-.6.09-.14.12-.3.08-.47l-.29-1.27c-.04-.17-.17-.31-.34-.35-.6-.16-1.25-.12-1.93.11l.06-1.5c.65.25,1.34.33,2.08.24.17-.02.26-.12.25-.29-.02-.79-.24-1.49-.68-2.1,1.25-.71.58-1.92,1.81-2.85,0,1.46.82,2.08,2.44,1.85.18-.02.26-.12.25-.3l-.12-2.48c.47-.12.83-.4,1.1-.86,1.37.14,2.74.23,2.42-1.68Zm.55,4.83v-1.87c.01-.35-.27-.63-.61-.64h-.88c-.71-.01-1.28.34-1.29.78v1.54c-.02.44.56.8,1.26.8,0,0,0,0,0,0h.88c.35,0,.63-.27.64-.62h0Zm-4.21,1.79c0-.25-.21-.45-.46-.44h0l-1.5.02c-.25,0-.45.21-.44.46l.03,1.77c0,.25.21.45.46.44h0l1.5-.02c.25,0,.45-.21.44-.46h0l-.03-1.77Zm-.06,4.99c.18-.54.21-.95.11-1.22-.22-.57-.87-.85-1.44-.62-.41.16-.69.56-.71,1,0,.29.29.68.89,1.18.31.25.76.21,1.01-.1.06-.07.1-.15.13-.24Zm3.67-.33c.09-.48-.23-.93-.7-1.02l-.51-.09c-.48-.09-.93.23-1.02.7h0s-.09.48-.09.48c-.09.48.23.93.7,1.02l.51.09c.48.09.93-.23,1.02-.7h0s.09-.48.09-.48Z"/>
    <path class="cls-4" d="m63.4,43.79l.12,2.48c.01.18-.07.28-.25.3-1.62.23-2.44-.39-2.44-1.85.06-1.45,1.55-1.4,2.57-.93Z"/>
    <path class="cls-4" d="m67.46,46.08c0,.35-.29.63-.64.62h-.88c-.71-.01-1.28-.37-1.28-.81,0,0,0,0,0,0v-1.54c.02-.44.59-.79,1.3-.78h.88c.35,0,.63.29.62.64h0s-.01,1.87-.01,1.87Z"/>
    <path class="cls-4" d="m59.02,47.57c.44.61.67,1.31.68,2.1,0,.17-.08.27-.25.29-.74.09-1.43,0-2.08-.24-.33-.63-.41-1.25-.24-1.86.05-.18.2-.32.38-.37.48-.12.98-.1,1.51.07Z"/>
    <rect class="cls-4" x="60.87" y="47.44" width="2.4" height="2.67" rx=".45" ry=".45" transform="translate(-.76 .98) rotate(-.9)"/>
    <path class="cls-4" d="m66.63,47.98c.15,1.13-.01,1.74-.5,1.83-.21.09-.58.01-1.13-.23-.16-.07-.28-.21-.31-.38l-.21-1.13c-.04-.22.05-.37.26-.43.76-.23,1.38-.12,1.88.33Z"/>
    <path class="cls-4" d="m57.75,53.8c-.77-.7-.91-1.56-.43-2.58.68-.24,1.33-.27,1.93-.11.17.05.3.18.34.35l.29,1.27c.04.17,0,.32-.08.47-.46.69-1.14.89-2.04.6Z"/>
    <path class="cls-4" d="m63.19,52.86c-.12.38-.53.59-.91.47-.09-.03-.17-.07-.24-.13-.6-.5-.9-.89-.89-1.18.02-.61.53-1.1,1.15-1.08.44.01.83.29,1,.7.11.27.07.67-.11,1.22Z"/>
    <rect class="cls-4" x="64.57" y="51.42" width="2.24" height="2.27" rx=".88" ry=".88" transform="translate(2.04 107.57) rotate(-79.5)"/>
    <path class="cls-21" d="m32.6,54.61v8.03c-.58-.02-1.13.27-1.66.86l-.24-9.14c.74-.23,1.37-.15,1.9.25Z"/>
    <path class="cls-4" d="m61.8,57.24c-.41-.18-.69-.47-.84-.89.02-1.04.48-1.57,1.37-1.6.66-.02.98.3.96.97l-.04.89c0,.18-.1.35-.24.46-.33.24-.73.29-1.2.17Z"/>
    <path class="cls-4" d="m67.35,55.05l.25,2.31c-.91.43-1.7.46-2.36.1-.2-.1-.3-.27-.31-.5l-.08-1.66c-.01-.23.09-.37.3-.44.65-.21,1.38-.15,2.19.19Z"/>
    <path class="cls-4" d="m57.37,62.08c.12-.02.16-.07.12-.14l1.41-.12c.19-.01.38.09.47.26.21.4.29.86.25,1.37-.04.51-.49.88-1,.84-.24-.02-.45-.13-.61-.31-.42-.47-.63-1.11-.64-1.9Z"/>
    <path class="cls-4" d="m63.55,63.78c.01.27-.19.5-.46.51l-.79.05c-.59.03-1.09-.45-1.12-1.09,0,0,0,0,0,0v-.24c-.05-.63.4-1.17.99-1.2,0,0,0,0,0,0l.79-.04c.27-.01.5.19.51.46l.08,1.55Z"/>
    <rect class="cls-4" x="64.84" y="61.87" width="2" height="2.32" rx=".52" ry=".52" transform="translate(-.98 1.04) rotate(-.9)"/>
    <path class="cls-22" d="m32.59,62.64c.21.32.29.62.26.91-.02.18-.16.32-.34.35-.46.07-.98-.06-1.58-.41.53-.59,1.08-.88,1.65-.86Z"/>
    <path class="cls-4" d="m67.08,67.2c-1.22,1.4-2.09,1.01-2.63-1.17.61-.41,1.28-.55,2.01-.4.2.04.32.16.36.36l.25,1.21Z"/>
    <path class="cls-4" d="m63.26,76.79v1.56c0,.18-.09.3-.26.36-1.13.37-1.76.02-1.89-1.05-.02-.21.03-.41.15-.58.62-.87.53-1.74-.27-2.61-.41-.45-.38-1.15.07-1.56.25-.23.58-.33.92-.28l1.68.27c.35.06.53-.09.57-.44.14-1.45-.2-3.93,2.13-3.54,1.87.32,1.1,1.99,1,3.15-.02.19.04.35.19.47,1.7,1.53.03,3.32-.28,4.98-.25,1.34-.94,2.08-2.3,1.19-.15-.1-.26-.27-.28-.44l-.24-1.6c-.03-.2-.14-.32-.34-.35l-.23-.05c-.28-.06-.56.13-.61.42,0,.03,0,.07,0,.1Z"/>
    <path class="cls-4" d="m62.78,69.06c.27-.03.51.17.54.44l.08.92c.06.69-.36,1.29-.95,1.35l-.24.02c-.59.06-1.12-.46-1.19-1.15l-.08-.93c-.03-.27.17-.51.45-.54,0,0,0,0,0,0l1.38-.12Z"/>
    <rect class="cls-21" x="30.93" y="72.67" width="1.7" height="15.37" rx=".32" ry=".32" transform="translate(-.28 .11) rotate(-.2)"/>
    <path class="cls-4" d="m57.84,79.41c-.97-1.63-1.15-3.77-.56-6.42.63-.29,1.37-.34,2.21-.16.19.04.32.15.38.33.53,1.51-.04,3.22.2,4.68.19,1.13-.55,1.65-2.23,1.57Z"/>
    <path class="cls-34" d="m16.53,76.17c.37,8.2.48,16.46.96,24.69.14,2.45-.03,4.82-.51,7.12-.33-1.68-1.55-1.46-2.74-1.62-.21-.03-.32-.15-.32-.36l-.28-11.29-.08-10.27-.03-7.81c0-.24.12-.36.35-.37l2.65-.1Z"/>
    <path class="cls-4" d="m63.7,83.27c-1.69.73-3.2-.92-2.46-2.67.08-.17.2-.26.38-.28l1.64-.11c.24-.02.45.16.47.39l.25,2.18c.02.23-.07.39-.28.48Z"/>
    <path class="cls-4" d="m66.93,80.55c.35,1.84-.18,2.57-1.58,2.19-.42-.59-.54-1.27-.34-2.04.05-.18.15-.31.33-.38.53-.23,1.06-.15,1.59.24Z"/>
    <path class="cls-4" d="m65.33,90.77c-.48-.88-.58-1.79-.3-2.74,2.21-1,3.26.5,2.31,2.47-.08.18-.22.26-.42.26h-1.59Z"/>
    <path class="cls-4" d="m63.67,88.1c.59,1.76.42,2.67-.48,2.76-1.44.15-2.13-.46-2.06-1.83.03-.54.29-.89.8-1.05.57-.18,1.15-.14,1.74.13Z"/>
    <path class="cls-6" d="m65.03,88.03c-.28.95-.18,1.86.3,2.74-.58.3-1.29.33-2.14.09.91-.08,1.07-1,.48-2.76.5-.17.96-.2,1.36-.07Z"/>
    <path class="cls-4" d="m55.95,96.67c0,.24-.19.43-.43.43h-.53c-.79,0-1.43-.48-1.43-1.07v-.54c0-.59.64-1.07,1.43-1.07h.53c.24,0,.43.19.43.43h0v1.81Z"/>
    <path class="cls-4" d="m59.07,94.35c.27-.04.52.15.56.42l.08.6c.11.78-.28,1.47-.88,1.56l-.23.03c-.59.08-1.16-.48-1.27-1.26h0s-.08-.6-.08-.6c-.04-.27.15-.52.42-.56,0,0,0,0,0,0l1.4-.19Z"/>
    <path class="cls-4" d="m62.92,94.43c.26,0,.47.2.47.46h0s0,.9,0,.9c0,.64-.42,1.16-.94,1.16,0,0,0,0,0,0h-.34c-.53,0-.96-.51-.97-1.14v-.9c0-.26.2-.47.46-.47h1.32Z"/>
    <rect class="cls-4" x="65.04" y="94.46" width="2.03" height="2.33" rx=".47" ry=".47" transform="translate(-3.13 2.24) rotate(-1.9)"/>
    <path class="cls-21" d="m31.44,114.1c-.24,0-.43-.19-.43-.43v-5.24c0-6.09.24-11.03.53-11.03h.98c.3,0,.53,4.94.53,11.03h0v5.24c0,.24-.19.43-.43.43h-1.18Z"/>
    <rect class="cls-4" x="61.27" y="98.22" width="2.13" height="2.35" rx=".59" ry=".59" transform="translate(-6.28 4.23) rotate(-3.7)"/>
    <path class="cls-4" d="m67.12,98.38l-.19,1.8c-.37.32-.82.41-1.36.26-.2-.05-.32-.18-.35-.38l-.25-1.31c-.04-.25.06-.38.31-.38h1.83Z"/>
    <path class="cls-4" d="m66.68,101.87c.3.77.34,1.52.11,2.26-.77.09-1.39-.04-1.86-.37-.45-.32-.56-.94-.24-1.39.17-.24.44-.4.74-.42l1.25-.09Z"/>
    <path class="cls-4" d="m62.9,105.27c.64.95.58,1.74-.17,2.37-1.1.07-1.6-.52-1.5-1.77.02-.18.1-.32.26-.41.38-.21.85-.27,1.41-.19Z"/>
    <path class="cls-4" d="m67.04,105.37l-.07,2.08c0,.2-.11.32-.29.38-.58.17-1.15.15-1.72-.06l-.19-2.23c-.02-.18.07-.26.25-.25l2.03.09Z"/>
    <path class="cls-4" d="m57.68,107.5c-.54-.29-.75-.96-.46-1.51.19-.36.56-.58.96-.59h.96c.2-.01.37.14.39.33l.23,1.73c.02.14-.07.27-.21.29-.68.13-1.3.04-1.87-.26Z"/>
    <path class="cls-42" d="m51.01,109.2c.11.09.26.14.47.15.17,0,.25.09.25.26v.31c0,.16.13.29.29.29,0,0,0,0,0,0l12.82-.23c.17,0,.26-.09.25-.26l-.02-.33c1.19-.19,1.79-.11,1.81.24l.2,29.31c-.42-.65-.82-.94-1.2-.87-.2.03-.3.15-.32.34l-.19,1.91c-1-.15-1.81-.06-2.42.25l-7.63.02c-.18,0-.31.08-.37.25l-.07.19-.4-.04c-.63-1.19-2.84-.63-3.96-.44-.21.03-.31-.05-.31-.26-.1-6.89-.1-13.78-.02-20.67.03-3.19-.28-6.64-.32-9.95,0-.17.08-.29.24-.34.27-.1.58-.14.93-.11Zm13.71,5.63c0-.08-.07-.15-.15-.15l-12.14.13c-.08,0-.15.07-.15.15h0s.12,11.62.12,11.62c0,.08.07.15.15.15l12.14-.13c.08,0,.15-.07.15-.15h0l-.12-11.62Zm-3.81,19.49c1.07.46,2.34.61,3.81.43.17-.02.3-.11.39-.26.38-.66.31-1.24-.21-1.76-.14-.13-.19-.29-.16-.48.23-1.7.1-3.39-.39-5.1-2.81.13-5.47.11-7.97-.05-1.2-.08-2.05.49-3.43-.02-.12-.05-.26.01-.31.14-.01.03-.02.05-.02.08l-.15,7.22c0,.15.12.28.27.28,0,0,.01,0,.02,0,.77-.03,1.52-.08,2.23-.14,1.99-.17,3.82.19,5.93-.35Z"/>
    <path class="cls-16" d="m51.01,109.2l14.05.18.02.33c0,.17-.08.26-.25.26l-12.82.23c-.16,0-.29-.12-.29-.28,0,0,0,0,0,0v-.31c0-.17-.08-.25-.25-.26-.2,0-.36-.05-.47-.15Z"/>
    <path class="cls-46" d="m66.87,109.61c.77.31,1.46.77,2.09,1.39.12.12.2.26.23.43.25,1.14-.08,2.24-.01,3.21.19,2.78.44,5.55.77,8.31.17,1.45.39,2.51.66,3.17.07.17.1.35.09.54-.11,1.63-.02,2.81-.79,4.37-1.46,2.96-1.92,6.15-1.38,9.59.1.67-.34,1.31-1,1.45-1.46.31-2.98.09-4.57-.66l-.03-.86c.62-.31,1.43-.4,2.42-.25l1.28-.03c.2,0,.29-.11.28-.3-.03-.44.02-.79.15-1.05l-.2-29.31Z"/>
    <rect class="cls-41" x="52.34" y="114.74" width="12.44" height="11.93" rx=".15" ry=".15" transform="translate(-1.26 .62) rotate(-.6)"/>
    <rect class="cls-19" x="31.13" y="123.31" width="1.74" height="15.36" rx=".37" ry=".37" transform="translate(-.69 .17) rotate(-.3)"/>
    <path class="cls-46" d="m64.34,127.16c-.6.68-.96,1.01-1.1,1.01-.74-.03-1.36.53-1.39,1.26,0,0,0,.01,0,.02l-.08,2.4c-.02.72-.61,1.28-1.33,1.28l-7.13.02c-.47,0-.49.1-.07.31.6.29,1.18.33,1.74.12.15-.06.3-.05.44.04.35.24.54.23.97.09,1.8-.59,3.3-.38,4.52.61-2.11.54-3.94.18-5.93.35-.72.06-1.46.11-2.23.14-.15,0-.28-.11-.29-.26,0,0,0-.01,0-.02l.15-7.22c0-.13.11-.24.24-.24.03,0,.06,0,.08.02,1.38.51,2.23-.06,3.43.02,2.5.17,5.16.18,7.97.05Zm-4.22,4.52l-2.78.18c-.53.03-.53.1-.01.21,1.03.2,2.06.3,3.1.3.21,0,.31-.1.3-.31,0-.14-.05-.26-.14-.37l-.04-2.42c0-.2-.11-.31-.3-.33-.73-.08-1.44.05-2.13.36-.08.03-.12.11-.09.19.02.07.1.11.17.1.56-.05,1.09.02,1.61.22.17.06.25.19.22.37l-.02.18c-.04.28-.18.36-.43.24-.45-.21-.93-.25-1.43-.12-.09.03-.13.09-.1.18.02.06.04.13.07.2.03.12.15.19.28.17.69-.1,1.27.12,1.74.65Z"/>
    <path class="cls-8" d="m64.34,127.16c.49,1.7.62,3.4.39,5.1-.03.19.03.35.16.48.52.52.59,1.1.21,1.76-.09.15-.22.24-.39.26-1.47.17-2.74.03-3.81-.43-1.22-.99-2.72-1.19-4.52-.61-.43.14-.62.15-.97-.09-.14-.09-.29-.11-.44-.04-.57.21-1.15.17-1.74-.12-.42-.21-.39-.31.07-.31l7.13-.02c.72,0,1.3-.57,1.33-1.28l.08-2.4c.02-.73.63-1.3,1.37-1.28,0,0,.01,0,.02,0,.14,0,.5-.33,1.1-1.01Z"/>
    <path class="cls-15" d="m60.59,131.7l-.47-.02c-.47-.53-1.05-.74-1.74-.65-.12.02-.24-.06-.28-.17-.02-.07-.05-.13-.07-.2-.03-.09,0-.15.1-.18.5-.13.98-.09,1.43.12.25.12.4.04.43-.24l.02-.18c.03-.18-.05-.3-.22-.37-.52-.2-1.06-.27-1.61-.22-.08.02-.16-.04-.18-.12-.01-.07.03-.15.1-.17.69-.32,1.4-.44,2.13-.36.2.02.3.13.3.33l.04,2.42Z"/>
    <path class="cls-6" d="m60.12,131.68l.47.02c.09.11.14.23.14.37,0,.21-.1.31-.3.31-1.04,0-2.07-.1-3.1-.3-.52-.1-.51-.17.01-.21l2.78-.18Z"/>
    <path class="cls-16" d="m67.07,138.92c-.13.26-.18.61-.15,1.05.01.2-.08.3-.28.3l-1.28.03.19-1.91c.02-.2.13-.31.32-.34.39-.07.79.22,1.2.87Z"/>
    <path class="cls-47" d="m62.94,140.56l.03.86-.16,4.88-1.47,3.04c-.08.17-.18.32-.3.46-.64.71-.87,1.58-.7,2.6l-4.92-.07c-.26,0-.48-.22-.48-.48l-.08-10.82.07-.19c.06-.17.19-.25.37-.25l7.63-.02Z"/>
    <path class="cls-2" d="m54.46,140.98l.4.04.08,10.82c0,.26.22.48.48.48l4.92.07c.73-.21,1.46-.19,2.21.06.14.05.22.2.17.34-.01.04-.04.08-.07.11l-.26.27c-.1.1-.16.21-.19.35-.32,1.64-.4,3.3-.22,4.96.02.19-.12.36-.31.38-.02,0-.04,0-.06,0l-.95-.08c-.26-.02-.38-.17-.34-.43l.64-4.92c.02-.15-.05-.23-.21-.23l-3.98.07c-1.08-.38-1.89-.14-2.45.71v-6.4s.15-6.61.15-6.61Z"/>
    <path class="cls-6" d="m62.8,146.29l.02,1.28-.17,11.87c0,.28-.23.51-.52.52-1.09.01-7.36.38-7.61-.55.69-.7,1.49.24,1.94-.74,1.59.94,1.37-3.79,1.42-4.57.01-.19-.08-.29-.26-.29l-1.31-.03c.47-.14.62-.31.46-.5l3.98-.07c.16,0,.23.08.21.23l-.64,4.92c-.03.26.08.41.34.43l.95.08c.19.02.36-.13.38-.32,0-.02,0-.04,0-.06-.18-1.67-.1-3.32.22-4.96.03-.14.09-.25.19-.35l.26-.27c.11-.1.11-.27,0-.38-.03-.03-.07-.05-.11-.07-.75-.26-1.48-.28-2.21-.06-.17-1.02.06-1.89.7-2.6.12-.14.22-.29.3-.46l1.47-3.04Z"/>
    <path class="cls-22" d="m32.98,151.85l.15,12.69c0,.24-.11.34-.35.31l-1.21-.16c-.23-.03-.35-.17-.36-.39l-.23-4.04.15-10.65c0-.18.07-.33.21-.45.4-.36.86-.43,1.4-.22.2.08.29.22.29.43l-.03,2.48Z"/>
    <path class="cls-15" d="m56.76,153.27c.16.19,0,.36-.46.5l-.06,2.46c0,.18.03.35.11.52.29.57.32,1.21.1,1.91-.45.98-1.25.04-1.94.74l-.21-5.42c.56-.86,1.37-1.1,2.45-.71Z"/>
    <path class="cls-3" d="m56.3,153.77l1.31.03c.19,0,.28.1.26.29-.06.78.17,5.51-1.42,4.57.23-.7.19-1.34-.1-1.91-.08-.17-.12-.34-.11-.52l.06-2.46Z"/>
    <path class="cls-17" d="m75.35,177.04v.03s.08.04.12.07l-.12-.1Z"/>
    <path class="cls-15" d="m61.97,165.97c-.84.68-.98,1.41-.43,2.22.29.42.87.53,1.29.24.19-.13.33-.33.38-.56.18-.78.02-1.39-.49-1.83h2.58c-.22.65-.28,1.38-.19,2.19.02.17.13.31.29.38.69.28,1.36.11,2-.52.08.96.37,1.73.87,2.32.08.09.12.2.14.32l.2,2.33c.02.21-.02.4-.13.58-.68,1.17.23,1.81-.08,2.78-.28.87-1.29,1.09-1.79,1.52-.56.5-1.07,1.06-1.51,1.68-.11.14-.26.24-.43.29l-3.22.75c-.2.05-.36,0-.5-.14-.7-.71-1.53-1.22-2.48-1.52-.2-.06-.37-.17-.5-.33-.68-.8-.99-1.71-.91-2.75.01-.17-.03-.32-.12-.45-.52-.75-.11-4.5-.24-5.7-.02-.18-.16-.31-.34-.32-1.02-.03-1.7-.35-2.04-.98.51.17.93.2,1.27.1.21-.06.31-.2.32-.41v-1.29s1.55-.55,1.55-.55c-.18.7-.18,1.41.01,2.13.04.17.15.25.32.25h1.56c.27,0,.43-.13.49-.39.17-.73.08-1.39-.28-1.99-.11-.18-.27-.28-.49-.3-.55-.03-1.09.06-1.61.29.55-2.18,3.25-.62,4.51-.34Zm.07,6.87c-.27.1-.55.13-.86.07-.2-.04-.36.03-.48.2-.41.59-.95.98-1.61,1.19-.18.05-.23.17-.17.34.06.17.2.25.42.25.24,0,.39.12.43.36l.19,1.02c.03.15.09.28.2.39.74.77,1.65,1.1,2.72.98.22-.02.4-.12.53-.3l.53-.7c.07-.09.16-.14.28-.16l2.27-.29c.24-.03.42-.24.42-.48v-1.73c0-.31-.15-.46-.46-.46h-2.71c-.27,0-.49-.22-.49-.49,0-.02,0-.05,0-.07.2-1.33,1.19-3.5-1.57-3.08-.45.07-.68.33-.68.79v1.11c0,.21.1.34.3.4l.71.21c.42.13.43.27.02.43Zm5-.74l.05-1.81c0-.23-.17-.42-.4-.42h0l-.69-.02c-.64-.02-1.18.42-1.19.97l-.02.62c-.02.55.49,1.02,1.13,1.04l.7.02c.23,0,.42-.17.42-.4h0Zm-7.27-.33l-.06-1.29c-.01-.23-.21-.4-.43-.39,0,0,0,0,0,0l-.65.03c-.49.02-.87.47-.85,1v.2c.04.53.46.94.95.91l.65-.03c.23,0,.4-.2.39-.43,0,0,0,0,0,0Z"/>
    <path class="cls-4" d="m57.46,166.31c.52-.23,1.06-.33,1.61-.29.22.02.38.11.49.3.36.59.45,1.25.28,1.99-.06.26-.22.39-.49.39h-1.56c-.17,0-.27-.08-.32-.25-.19-.72-.19-1.43-.01-2.13Z"/>
    <path class="cls-4" d="m61.97,165.97l.75.07c.51.44.67,1.04.49,1.83-.11.5-.61.81-1.11.7-.23-.05-.43-.19-.56-.38-.55-.8-.41-1.54.43-2.22Z"/>
    <path class="cls-4" d="m65.3,166.05c.66-.12,1.21-.08,1.63.11.18.09.29.23.31.43l.17,1.5c-.65.63-1.31.8-2,.52-.16-.06-.27-.21-.29-.38-.1-.82-.04-1.55.19-2.18Z"/>
    <path class="cls-4" d="m55.93,166.86v1.29c-.01.21-.12.35-.33.41-.34.1-.77.06-1.27-.1-.46-.24-.67-.65-.64-1.24.01-.19.1-.34.26-.44.63-.38,1.29-.35,1.97.08Z"/>
    <path class="cls-4" d="m62.02,172.41l-.71-.21c-.2-.06-.3-.19-.3-.4v-1.11c0-.46.23-.73.68-.79,2.76-.42,1.77,1.75,1.57,3.08-.04.27.14.52.41.56.02,0,.05,0,.07,0h2.71c.31,0,.46.15.46.46v1.73c0,.24-.18.45-.42.48l-2.27.29c-.12.02-.21.07-.28.16l-.53.7c-.14.18-.31.28-.53.3-1.08.11-1.98-.22-2.72-.98-.11-.11-.18-.24-.2-.39l-.19-1.02c-.04-.24-.19-.36-.43-.36-.22,0-.36-.08-.42-.25-.06-.17,0-.29.17-.34.67-.2,1.21-.6,1.61-1.19.12-.17.28-.24.48-.2.31.05.59.03.86-.07.41-.16.41-.3-.02-.43Z"/>
    <path class="cls-4" d="m67.04,172.1c0,.23-.19.41-.42.4h0l-.7-.02c-.64-.02-1.15-.49-1.13-1.04l.02-.62c.02-.56.55-.99,1.19-.97l.69.02c.23,0,.41.19.4.42h0s-.05,1.81-.05,1.81Z"/>
    <path class="cls-4" d="m59.77,171.77c0,.23-.17.42-.39.43,0,0,0,0,0,0l-.65.03c-.49.02-.91-.38-.94-.91v-.2c-.04-.53.35-.97.84-1l.65-.03c.23-.01.42.16.43.39,0,0,0,0,0,0l.06,1.29Z"/>
    <path class="cls-22" d="m32.62,182.47l.32,7.2c.02.34-.24.63-.58.64-.2.01-.4-.08-.52-.24-1.59-2.08-.81-6.4-.61-8.89.21-1.2.33-3.21.36-6.03,0-.55.28-.76.82-.64.13.03.2.11.2.25l.02,7.71Z"/>
    <path class="cls-18" d="m75.55,198.08l.25,16.61-.26,3.25c-.03.43.17.65.6.65l6.84.05,5.03.09,2.31.34c.07,0,.1.05.1.11v.16c0,.07-.03.1-.1.1-1.04.02-3.84-.56-3.19,1.4-.59.06-.92-.23-1.02-.88-.03-.2-.19-.35-.39-.35l-10.31-.19c-.2,0-.32.09-.38.28-.22.85-.27,3.95-.61,4.31-.16.17-.13.28.1.34l1.15.32.15.33c.02,1.05-3.04.64-3.71.57-.18-.02-.35.02-.5.12l-3.77,2.56-3.28.34c1.58-1.51,2.93-3.2,4.06-5.09,1.03-1.72,2.22-3.13,2.91-5.07.41-1.11.83-1.91,1.27-2.39,1.41-1.52.35-4.23.11-6.1-.02-.13-.08-.24-.19-.32l-1.03-.77c-.13-.09-.16-.27-.07-.39.04-.06.11-.1.18-.11l.57-.11c.13-.02.16-.09.09-.2-.33-.5-.73-.94-1.19-1.32-.1-.08-.15-.06-.15.07v.51s-.01.05-.03.05c-.01,0-.03,0-.04-.02-.04-.04-.09-.08-.14-.13-.1-.1-.26-.1-.35,0l-.16.17c-.08.08-.15.07-.2-.03-.76-1.44-.96-3.03-.59-4.76.08-.37.03-.68-.16-.93-.1-.14-.17-.29-.2-.45-.52-2.55-2.05-3.67-4.59-3.37-.8.25-1.38.76-1.74,1.51-.3,0-.41.01-.33.06l-2.67,1.04c-.15.05-.17.02-.06-.09.33-.37.32-.67-.02-.88.22-.23.24-.45.05-.67-.13-.16-.27-.16-.41-.01-.17.19-.36.3-.57.33-.08.01-.16-.05-.16-.13,0-.07.04-.14.11-.17.63-.25.77-.69.41-1.31-.09-.15-.21-.22-.38-.21-.78.03-1.53-.08-2.25-.34-.52-.19-.5-.28.05-.28h.25c.27,0,.33-.08.19-.25-.03-.03-.1-.06-.2-.09-.06-.02-.06-.03,0-.05l1.15-.29c.44-.11.44-.17-.02-.17h-.25c-.06,0-.1-.05-.1-.1,0-.03.02-.06.04-.08,1.87-1.23,3.48-1.88,5.84-1.91,1.24-.02,2.27-.38,3.45.12,1.31.56,2.52,1.28,3.62,2.15,1.34,1.06,1.92,3.1,2.99,4.62.54.77,1.11.76,1.69-.03.28-.38.35-1.22.21-2.53Z"/>
    <path class="cls-6" d="m37.11,226.95c-.01-.06-.01-.11,0-.17,0,0,0-.02,0-.02-.01.06-.01.13,0,.2Z"/>
    <path class="cls-4" d="m64.66,197.84c1.76.24,2.84,1.04,3.25,2.42,1.37,4.64-7.85,4.89-4.99-.92.36-.75.95-1.25,1.74-1.51Z"/>
    <path class="cls-43" d="m89.15,251.98c-.74,1.22-1.93,2.09-3.58,2.6l-.2-2.2c-.05-.54.34-1.01.87-1.06.11-.01.22,0,.32.02l2.58.63Z"/>
    <path class="cls-16" d="m90.72,257.82s.05.05.08.08c-1.17-.21-2.03.02-2.57.69l-.37-1.7c-.05-.24.1-.47.33-.52.03,0,.06,0,.09,0l2.01.03c.23,0,.31.11.25.33-.11.41-.06.78.16,1.11Z"/>
    <path class="cls-36" d="m75.8,214.68c1.71.06,3.43.11,5.14.14,2.45.05,2.57,2.02,2.03,3.81l-6.84-.05c-.43,0-.63-.22-.6-.65l.26-3.25Z"/>
    <path class="cls-19" d="m90.8,257.9c.12.93.01,1.91-.32,2.93-1.17.58-2.18.63-3.02.15l.77-2.39c.54-.66,1.39-.89,2.57-.69Z"/>
    <path class="cls-10" d="m92.07,217.9c.84.48,1.85.43,3.02-.15l.34,8.3c-.51.88-.63,2.16-.36,3.83.08.45-.08.83-.45,1.13-.16.13-.21.29-.15.49.26.84.8,2-.56,2.35l-4.93.1-4.49-.1c.23-.63.06-1.06-.51-1.29-.17-.07-.27-.2-.32-.38l-.57-2.63c-.08-.36.15-.72.5-.8.1-.02.19-.02.29,0,.51.11.96-.03,1.36-.42l5.6.24c.15,0,.26-.06.33-.2.73-1.51-6.95-1.72-8.42-1.72-.19,0-.31.09-.38.27-.14.4-.4.62-.77.65-.21.02-.35-.07-.4-.29l-.14-.6c-.05-.19-.22-.33-.42-.33h-2.9c-.31,0-.56-.27-.56-.61,0-.03,0-.06,0-.09,0-.04.11-.05.3-.02l9.15-.03c.2,0,.31-.1.33-.3l.21-2.76,1.42.03-.39,1.25c-.07.23,0,.32.24.29l1.29-.2c.2-.03.32-.14.36-.33.12-.46.02-.87-.28-1.23l2.05-.1c.19,0,.34-.17.34-.37l-.15-4.01Z"/>
    <path class="cls-29" d="m87.12,220.84c-1.07.74-2.12.77-3.16.1-.24-.16-.57-.09-.73.15-.09.14-.11.3-.06.46.12.38.43.62.92.73-1.39.82-1.69-.04-2.8-.1-1.39-.07-2.4.9-3.88,1.22-.19.04-.37-.07-.42-.25-.12-.43-.37-.74-.76-.94-.13-.07-.29-.01-.36.12-.02.03-.02.06-.03.1l-.2,2.24-1.15-.32c-.22-.06-.25-.18-.1-.34.34-.36.39-3.46.61-4.31.05-.19.18-.29.38-.28l10.31.19c.2,0,.37.15.39.35.09.65.43.95,1.02.88Z"/>
    <path class="cls-17" d="m23.54,228.13l-8.51-.17c1.02-.39,1.46-1.74,1.32-4.07.16-.23.12-.5-.11-.79.29-.69.4-1.37.33-2.04.4-.09.62-.35.66-.78.03-.34.32-.59.66-.56.24.02.45.18.53.42l.77,2.15c.07.2.19.35.35.47.9.65,1.57,1.47,2.03,2.45.08.17.19.31.33.43.88.72,1.42,1.55,1.63,2.49Z"/>
    <path class="cls-16" d="m84.08,222.28l3.11.26-.21,2.76c-.02.2-.12.3-.33.3l-9.15.03c-.46-.4-1.03-.61-1.7-.64l-.15-.33.2-2.24c.01-.15.14-.25.29-.24.03,0,.07.01.1.03.39.2.64.51.76.94.05.18.23.29.42.25,1.47-.32,2.49-1.29,3.88-1.22,1.1.06,1.41.92,2.8.1Z"/>
    <path class="cls-19" d="m89.83,222.37c.3.36.39.77.28,1.23-.04.19-.16.3-.36.33l-1.29.2c-.23.03-.31-.06-.24-.29l.39-1.25,1.22-.21Z"/>
    <path class="cls-5" d="m51.69,228.75l-4.01-.19-9.79-.85c-.08,0-.16-.03-.23-.06-.04-.01-.07-.03-.11-.05-.04-.02-.08-.04-.12-.08-.04-.03-.07-.06-.11-.1-.03-.03-.05-.06-.07-.1-.01-.02-.02-.03-.03-.06-.04-.07-.07-.14-.09-.22,0-.03-.01-.06-.02-.08v-.02c-.01-.06-.01-.11,0-.17,0,0,0-.02,0-.02,0-.06.02-.12.04-.17.02-.06.04-.11.07-.16.89-1.51,2.29-2.83,4.13-3.23,2.94-.65,5.06-1.27,7.22,1.41.9,1.11,1.69,1.64,2.72,2.46.15.12.23.28.25.46l.16,1.23Z"/>
    <path class="cls-49" d="m15.01,223.4c-.04.63.41.8,1.34.5.14,2.33-.3,3.68-1.32,4.07-.57-.3-1.16-.41-1.77-.35l-.38-3.49c0-.12.09-.29.25-.52.14-.84.77-.9,1.89-.2Z"/>
    <path class="cls-16" d="m16.25,223.1c.23.29.26.56.11.79-.93.3-1.38.14-1.34-.5.15-.48.56-.58,1.23-.29Z"/>
    <path class="cls-13" d="m75.8,225c.68.03,1.24.24,1.7.64-.2-.03-.3-.02-.3.02-.05.33.16.64.47.69.03,0,.05,0,.08,0h2.9c.2,0,.37.13.42.33l.14.6c.05.21.19.31.4.29.37-.03.63-.25.77-.65.06-.18.19-.27.38-.27,1.47,0,9.15.21,8.42,1.72-.07.14-.18.2-.33.2l-5.6-.24c-.29-1.11-2.34,0-3.08-.02-3.48-.04-8.49,1.03-11.61-.42-.18-.08-.38-.08-.55,0-.69.34-1.42.46-2.17.36l3.77-2.56c.15-.1.32-.14.5-.12.66.07,3.72.48,3.71-.57Z"/>
    <path class="cls-21" d="m13.26,227.61c.61-.06,1.2.06,1.77.35l8.51.17,2.97.02,1.43-.07c1.03.23,2,.15,2.93-.24,1.14-.48,2.1-.38,2.46.88-8.84.2-17.66.25-26.46.16-.84,0-2,.1-3.48.34,1-.63,1.61-1.39,1.84-2.3.04-.15.19-.24.34-.2.06.01.11.04.14.09,1.55,1.72,5.01,1.27,7.56.79Z"/>
    <path class="cls-1" d="m85.24,228.32c-.39.39-.85.53-1.36.42-.36-.08-.71.15-.79.51-.02.1-.02.2,0,.29l.57,2.63c.04.18.15.31.32.38.57.23.74.66.51,1.29l-3.36.14h-1.12s-6.33,0-6.33,0l-66.16.68c-.58-1.55-1.66-2.39-3.23-2.53-.76.26-1.31.18-1.65-.23-.12-.14-.15-.35-.08-.52l.84-2.14c1.49-.23,2.65-.35,3.48-.34,8.8.09,17.62.03,26.46-.16l14.35-.17,4.01.19,3.9-.06,2.99.07,5.96-.16,3.28-.34c.75.1,1.48-.02,2.17-.36.17-.09.37-.09.55,0,3.12,1.45,8.13.37,11.61.42.74.01,2.79-1.1,3.08.02Z"/>
    <path class="cls-25" d="m4.27,232.12c1.58.14,2.65.98,3.23,2.53l.21,3.89c-.18.4-.19,1-.02,1.81.03.14-.06.27-.2.3-.04,0-.08,0-.11,0-.67-.19-1.3-.11-1.88.24-.23.14-.43.1-.6-.1l-.28-.32c-.17-.2-.13-.33.12-.41.84-.26,1.23-.79,1.18-1.58-.01-.22-.13-.34-.35-.37l-3.71-.39c-.14-.01-.24-.13-.22-.27.01-.11.09-.2.2-.23l2.44-.5c.18-.04.34-.12.46-.25.43-.44.93-.79,1.49-1.05.62-.29.89-1.03.59-1.65-.2-.42-.61-.69-1.07-.71l-2.26-.09c-.17,0-.31.12-.32.3,0,.04,0,.08.02.12.26.69.18,1.16-.24,1.38l-.46-1.31,1.78-1.34Z"/>
    <path class="cls-30" d="m2.5,233.47l.46,1.31-1.01.68c-1.19-.31-1.83-.94-1.95-1.88-.02-.2.05-.36.22-.48.99-.69,1.75-.56,2.27.37Z"/>
    <path class="cls-40" d="m84.48,233.84l4.49.1c-.49.72-.56,1.47-.23,2.24.14.32,0,.68-.33.82-.08.03-.16.05-.25.05h-6.5c-.25,0-.38-.12-.39-.37l-.16-2.71,3.36-.14Z"/>
    <path class="cls-50" d="m93.91,233.83c.49.23.68.59.57,1.06-.06.24-.2.32-.44.23l-1.33-.51c-.22-.09-.37-.02-.44.21-.46,1.36-.59,2.76-.39,4.19-.55.63-.92,1.3-1.12,1.99-.05.18-.16.32-.31.43-2.03,1.43-1.38,10.24-1.15,12.55.09.91-.32,1.36-1.23,1.34-1.76-.02-11.28.66-12.13-.08l.28-.66,3.65-.02c.2,0,.35-.16.35-.35h0v-3.47c-.01-.24-.13-.36-.37-.37l-3.81-.14c.07-.38.06-.65-.02-.8l3.62-.23c.65-.04.95-.38.93-1.03l-.38-9.65c0-.21-.11-.31-.32-.32l-3.92-.14c-.21-.38-.19-.75.04-1.1,1.37.31,2.75.33,4.17.08.18-.03.26-.14.24-.33l-.38-2.75h1.12s.16,2.72.16,2.72c.02.24.15.37.39.37h6.5c.34,0,.62-.28.62-.62,0-.09-.02-.17-.05-.25-.34-.77-.26-1.52.23-2.24l4.93-.1Zm-5.64,4.61c0-.13-.11-.24-.24-.24h0l-6.71-.06c-.13,0-.24.11-.24.24h0l-.09,10.6c0,.13.11.24.24.24h0l6.71.06c.13,0,.24-.11.24-.24l.09-10.6Zm.12,12.42c-.02-.26-.24-.46-.5-.46h-6.18c-.27,0-.49.21-.5.48l-.11,3.26c0,.28.21.51.48.52.01,0,.02,0,.03,0l6.58-.17c.28,0,.49-.24.49-.51,0-.01,0-.02,0-.04l-.29-3.08Z"/>
    <path class="cls-41" d="m24.68,241.86v.03s0-.03-.01-.04t.01.01Z"/>
    <path class="cls-40" d="m73.67,233.97h6.33s.38,2.74.38,2.74c.02.18-.06.29-.24.33-1.41.26-2.8.23-4.17-.08.1-.67.29-2.22-.66-1.99-.17.04-.31,0-.44-.09l-1.21-.91Z"/>
    <path class="cls-25" d="m75.94,238.06l3.92.14c.21,0,.31.11.32.32l.38,9.65c.03.65-.28.99-.93,1.03l-3.62.23.04-5.06-.11-6.31Z"/>
    <rect class="cls-25" x="79.08" y="240.11" width="11.08" height="7.19" rx=".24" ry=".24" transform="translate(-159.81 326.2) rotate(-89.5)"/>
    <path class="cls-27" d="m91.88,239.01l-.08,14.63-.07,4.18c0,.25-.14.39-.39.41l-15.3.83-.1-3.8c.85.74,10.37.06,12.13.08.92.01,1.33-.43,1.23-1.34-.23-2.31-.87-11.12,1.15-12.55.15-.11.26-.25.31-.43.2-.69.57-1.36,1.12-1.99Z"/>
    <path class="cls-47" d="m24.67,241.85s.01.03.01.04v-.03s0,0-.01-.01Z"/>
    <path class="cls-32" d="m76.03,250.23l3.81.14c.24,0,.36.13.36.37v3.47c.01.2-.15.35-.34.35h0l-3.65.02-.18-4.35Z"/>
    <path class="cls-32" d="m88.39,250.86l.29,3.08c.03.28-.17.52-.45.55-.01,0-.02,0-.04,0l-6.58.17c-.28,0-.51-.21-.52-.48,0-.01,0-.02,0-.03l.11-3.26c0-.27.23-.48.5-.48h6.18c.26,0,.48.2.5.46Z"/>
    <path class="cls-36" d="m91.79,253.64l.03,3.85c0,.19.06.35.18.5,2.13,2.54.86,6.09.35,9.01l-.28-2.73c-.02-.16-.13-.31-.29-.37-1.73-.63-3.35-.61-4.86.06l-3.57-.07-7.21.55-.11-5.4,15.3-.83c.26-.02.39-.15.39-.41l.07-4.18Z"/>
    <path class="cls-45" d="m55.43,257.58h2.43c.25,0,.46.21.46.46v.07c0,.25-.21.46-.46.46h-2.43c-.25,0-.46-.21-.46-.46v-.07c0-.25.21-.46.46-.46Z" transform="translate(-4.05 .92) rotate(-.9)"/>
    <path class="cls-48" d="m57.81,268.7l-.06.73c-.33.18-.64.15-.93-.1l-.22-9.14c0-.19.13-.39.31-.46.18-.06.33.04.34.23l.56,8.74Z"/>
    <path class="cls-50" d="m83.35,263.9l-.13,6.49v1.77c-.29,1.11-.24,2.4.12,3.87.1.37.07.84-.1,1.4.08,1.16.6,4.02-.53,4.87l-3-.06-.14-1.86c0-.12-.11-.22-.24-.21-.09,0-.17.07-.2.16l-.48,1.46c-.06.19-.2.28-.4.28l-4.76-.2c-.43-.02-.76-.37-.76-.79l.03-7.78c.21-2.57-.05-5.05-.78-7.43-.06-.19.03-.39.21-.47l.96-.47,2.98-.46,7.21-.55Z"/>
    <path class="cls-7" d="m86.92,263.97l.84,1.17c-1.19.07-1.41,3.55-1.65,4.6-.04.18-.15.33-.32.42-.75.43-1.61.5-2.57.23l.13-6.49,3.57.07Z"/>
    <path class="cls-7" d="m73.16,264.91l-.96.47c-.18.09-.26.29-.21.47.72,2.38.98,4.86.78,7.43l-12.16.74-.51-3.59c-.03-.2-.12-.36-.27-.49-.5-.41-1.19-.59-2.07-.52l.06-.73c.69.51,1.02-2.81,1.16-3.23.1-.32.42-.53.75-.5l2.08.21c-1.34-.05-1.87.74-1.6,2.39.03.17.13.26.31.25,1.43-.05,2.85-.22,4.24-.51,1.84-.39,4-.47,5.95-1.24.18-.07.27-.2.28-.4v-.74c.94-.35,1.66-.35,2.17-.02Z"/>
    <path class="cls-14" d="m70.99,264.93v.74c0,.2-.1.33-.28.4-1.95.77-4.11.86-5.95,1.24-1.4.29-2.81.46-4.24.51-.18,0-.28-.08-.31-.25-.27-1.65.26-2.44,1.6-2.39l9.19-.25Z"/>
    <path class="cls-16" d="m87.76,265.14c1.4,2.4.8,9.79.59,12.07l-5.11.21c.17-.56.2-1.02.1-1.4l-.13-3.87v-1.77c.97.28,1.83.2,2.58-.23.16-.09.28-.25.32-.42.24-1.05.47-4.53,1.65-4.6Z"/>
    <path class="cls-26" d="m56.82,269.32c.29.25.6.28.93.1.88-.06,1.57.11,2.07.52.15.13.24.29.27.49l.51,3.59c.38.96.93,1.15,1.67.57.27-.21.66-.17.88.1.09.11.13.24.14.38l.06,3.02c-.16-2.14-2.42-2.51-4.16-1.89-.19.07-.39.08-.58.03-1.46-.36-2.91-.37-4.35-.05-.2.04-.34.15-.42.34-.42.93-1.11,1.56-2.08,1.88-.23.08-.35.33-.28.55.03.1.1.18.19.23.95.57,1.23,1.63,2.1,2.18,1.12.71,2.36,1.13,3.72,1.25.21.02.42-.04.59-.15.39-.26.82-.35,1.29-.28.21.03.38.14.5.33.17.26.41.39.74.39l-1.47.56c-.18.07-.27.2-.27.39l-.06,3.67c-.12.42-.09.85.09,1.3-.82.37-.96,1.2-.42,2.51l-2.08.05c.55-.06.63-.51.23-1.37l.02-5.61c0-.19-.08-.34-.24-.44-2.22-1.41-6.4-3.45-6.74-6.29-.21-1.78.12-4.41,1.77-5.43.15-.09.26-.23.33-.4.8-2.15,2.49-2.99,5.07-2.54Z"/>
    <path class="cls-38" d="m83.21,272.16l.13,3.87c-.36-1.47-.4-2.76-.13-3.87Z"/>
    <path class="cls-33" d="m72.76,273.28l-.03,7.78c0,.42.33.78.76.79l4.76.2c.2,0,.34-.08.4-.28l.48-1.46c.04-.12.17-.18.28-.14.09.03.15.11.16.2l.14,1.86c-1.43,2.03-.72,2.76-1.16,4.9l-19.76.41.06-3.67c0-.19.09-.32.27-.39l1.47-.56c.35-.15.67-.4.96-.76.09.34.23.62.41.84.14.15.3.21.5.18,2.77-.43,5.56-.55,8.37-.38.2.01.34-.07.43-.25l.17-.35c.13-.26.05-.4-.24-.42l-8.77-.6.7-.43c.16-.1.22-.24.17-.42-.16-.72-.15-1.47.04-2.25l-.06-3.02c0-.34-.29-.62-.64-.61-.14,0-.27.05-.38.14-.73.58-1.29.39-1.67-.57l12.16-.74Z"/>
    <path class="cls-31" d="m34.42,276.02l-4.65,2.49c-.44.23-.61.11-.52-.38.33-1.8,1.44-2.99,3.33-3.56.96-.29,1.62.07,1.98,1.09.05.14,0,.29-.14.36Z"/>
    <path class="cls-37" d="m63.34,278.09c-.19.78-.2,1.53-.04,2.25.04.18-.02.32-.17.42l-.7.43c-.37.27-.66.6-.87.97-.29.36-.6.61-.96.76-.32,0-.57-.13-.74-.39-.12-.18-.29-.29-.5-.33-.48-.08-.91.02-1.29.28-.17.12-.38.17-.59.15-1.36-.12-2.6-.54-3.72-1.25-.87-.56-1.15-1.61-2.1-2.18-.21-.12-.27-.39-.15-.6.05-.09.14-.16.24-.19.97-.33,1.66-.95,2.08-1.88.08-.18.22-.3.42-.34,1.44-.32,2.89-.31,4.35.05.19.05.39.04.58-.03,1.74-.62,4-.25,4.16,1.89Zm-7.66,2.26l3.1-.16c.52-.04.92-.49.88-1.01-.03-.45-.37-.82-.82-.88l-2.63-.33c-.09-.01-.18,0-.26.05-.71.33-1.1.78-1.18,1.34-.07.48.27.92.74.99.06,0,.11,0,.17,0Z"/>
    <path class="cls-35" d="m83.25,277.42l5.11-.21c-.48,1.44-.52,2.77-.1,3.98-1.82-.12-3.67.24-5.55,1.1,1.14-.86.62-3.71.53-4.87Z"/>
    <path class="cls-39" d="m55.68,280.35c-.48.03-.89-.34-.92-.83,0-.06,0-.11,0-.17.08-.56.47-1.01,1.18-1.34.08-.04.17-.06.26-.05l2.63.33c.52.07.88.55.81,1.07-.06.45-.43.79-.88.82l-3.1.16Z"/>
    <path class="cls-31" d="m28.66,283.31c-.41.02-.76-.27-.83-.67-.12-.71.14-1.14.79-1.29.22-.05.42-.02.62.09.71.39,1.2.21,1.49-.56.17-.45.67-.69,1.13-.52.14.05.26.14.36.25,1.61,1.88-2.52,2.66-3.55,2.71Z"/>
    <path class="cls-16" d="m62.42,281.19l8.77.6c.29.02.37.16.24.42l-.17.35c-.09.18-.23.26-.43.25-2.81-.18-5.59-.05-8.37.38-.2.03-.37-.03-.5-.18-.18-.22-.32-.5-.41-.84.21-.38.5-.7.87-.97Z"/>
    <path class="cls-24" d="m15.16,283.86c-.19.14-.43.2-.71.21-.79-.3-1.12-.83-.97-1.57l1.03-.6c.25-.15.4-.08.43.21l.23,1.75Z"/>
    <path class="cls-35" d="m12.49,282.45l.98.04c-.14.74.18,1.27.97,1.57-1.03.68-1.84.29-2.44-1.19-.06-.16.01-.33.17-.39,0,0,0,0,.01,0,.08-.03.18-.04.29-.02Z"/>
    <path class="cls-14" d="m88.62,283.32v4.19c-.07,1.34-.26,1.74-.6,1.2.29-.24.37-.56.24-.96-.05-.16-.2-.26-.37-.26l-8.28.03.06-3.77c0-.22.11-.34.33-.36.7-.07,1.41.07,2.12.42-.66.3-1,.78-1.02,1.44,0,.2.09.31.29.32,1.42.08,6.07.16,6.99-1.16.21-.31.14-.73-.16-.94-.12-.08-.26-.13-.4-.12l-3.09.06c1.37-.76,2.66-.79,3.89-.08Z"/>
    <path class="cls-33" d="m82.13,283.8l2.6-.4,3.09-.06c.37,0,.68.29.69.66,0,.14-.04.29-.12.4-.92,1.32-5.56,1.24-6.99,1.16-.2-.01-.3-.12-.29-.32.02-.66.36-1.14,1.02-1.44Z"/>
    <path class="cls-28" d="m29.64,287.45c-1.18.05-4.24.07-4.23-1.63,0-.32.26-.58.59-.58.1,0,.2.03.29.08,1.14.68,3.57.35,3.63,1.83,0,.16-.12.3-.28.3h0Z"/>
    <path class="cls-12" d="m78.55,287.13c.16.65.03.97-.38.96-1.27-.03-2.49.16-3.66.56-5.18.35-10.39.41-15.63.18-.18-.45-.21-.88-.09-1.3l19.76-.41Z"/>
    <path class="cls-12" d="m88.03,288.71c-2.63-.02-5.25-.07-7.85-.14-.74-.02-.67-.48-.56-1.05l8.28-.03c.17,0,.32.11.37.26.14.4.06.72-.24.96Z"/>
    <path class="cls-40" d="m74.51,288.66l2.41.47c.2.04.36.13.48.28.24.29.57.35.97.21.21-.08.33-.22.35-.44.04-.29.2-.41.5-.35.2.04.34.14.44.31.49.83.53,1.71.13,2.67-.08.18-.21.3-.4.36-.76.23-1.54.28-2.35.15.26-.21.58-.34.96-.4.19-.03.32-.2.32-.39l-.07-1.36c-.02-.27-.16-.4-.43-.39l-1.61.1c-.28.02-.4.17-.34.44l.37,1.97c-.35.08-.42.58-.23,1.5-.04.03-.08.07-.12.1h-.77l.1-2.58c0-.18-.08-.26-.25-.26l-16.51.32c-.54-1.31-.4-2.14.42-2.51,5.24.23,10.45.17,15.63-.18Z"/>
    <path class="cls-46" d="m16.46,289.38c-.05.59.2,1.07.72,1.44.15.1.33.15.51.13,2.14-.21,3.95-1,6.04-.95,8.31.18,16.62.15,24.93-.1,2.41-.08,5.2.61,7.95.12.4.86.32,1.32-.23,1.37-8.52.5-16.94,0-25.43.35-2.63.11-5.27.11-7.9,0-.83-.03-1.68.34-2.69.16-.45-.08-.87.23-.95.67-.02.11-.01.22.01.33l.24.95h-7.48l.03-.4,2.46-.58c.16-.04.28-.13.36-.27l1.19-2.11c.1-.18.05-.32-.15-.39-.32-.12-.72-.13-1.19-.02.35-.56.87-.8,1.58-.71Z"/>
    <path class="cls-50" d="m77.05,292.3c-.31.05-.58.04-.81-.03l-.37-1.97c-.05-.28.06-.43.34-.44l1.61-.1c.27-.02.42.11.43.39l.07,1.36c0,.19-.13.36-.32.39-.38.06-.7.19-.96.4Z"/>
    <path class="cls-34" d="m75.12,293.87H19.65l-.24-.95c-.11-.44.16-.89.6-.99.11-.03.22-.03.33-.01,1.02.17,1.86-.2,2.69-.16,2.64.12,5.27.12,7.9,0,8.5-.36,16.91.15,25.43-.35l2.08-.05,16.51-.32c.17,0,.26.08.25.26l-.1,2.58Z"/>
    <path class="cls-19" d="m76.01,293.77l2.69.1h-2.82s.08-.06.12-.1Z"/>
  </g>
  <rect class="cls-18" x="13.22" y="234.65" width="24.96" height="59.21"/>
</svg>